<mxfile host="app.diagrams.net" agent="Mozilla/5.0 (Macintosh; Intel Mac OS X 10_15_7) AppleWebKit/605.1.15 (KHTML, like Gecko) Version/17.6 Safari/605.1.15" version="24.7.16">
  <diagram name="Page-1" id="IdYZ_KFENTEXElLiOEKC">
    <mxGraphModel dx="1133" dy="729" grid="1" gridSize="10" guides="1" tooltips="1" connect="1" arrows="1" fold="1" page="1" pageScale="1" pageWidth="850" pageHeight="1100" math="0" shadow="0">
      <root>
        <mxCell id="0" />
        <mxCell id="1" parent="0" />
        <mxCell id="wVAZ-YzccNhZugPFJvmi-30" value="Spark Executor" style="rounded=1;whiteSpace=wrap;html=1;dashed=1;verticalAlign=top;" vertex="1" parent="1">
          <mxGeometry x="10" y="40" width="510" height="430" as="geometry" />
        </mxCell>
        <mxCell id="AH3lBTSLKK5181iXBnnY-2" value="JVM Code" style="rounded=1;whiteSpace=wrap;html=1;verticalAlign=top;" parent="1" vertex="1">
          <mxGeometry x="30" y="70" width="210" height="380" as="geometry" />
        </mxCell>
        <mxCell id="wVAZ-YzccNhZugPFJvmi-24" style="edgeStyle=orthogonalEdgeStyle;rounded=0;orthogonalLoop=1;jettySize=auto;html=1;exitX=0.75;exitY=1;exitDx=0;exitDy=0;entryX=0.75;entryY=0;entryDx=0;entryDy=0;" edge="1" parent="1" source="t5OBkkhKOG6cYtw1sPyQ-18" target="wVAZ-YzccNhZugPFJvmi-13">
          <mxGeometry relative="1" as="geometry" />
        </mxCell>
        <mxCell id="t5OBkkhKOG6cYtw1sPyQ-18" value="Comet Parquet Reader&lt;div&gt;&lt;br&gt;&lt;/div&gt;&lt;div&gt;&lt;br&gt;&lt;/div&gt;&lt;div&gt;IO and Decompression&lt;/div&gt;" style="rounded=1;whiteSpace=wrap;html=1;verticalAlign=top;" parent="1" vertex="1">
          <mxGeometry x="45" y="110" width="180" height="100" as="geometry" />
        </mxCell>
        <mxCell id="wVAZ-YzccNhZugPFJvmi-1" value="Native Code" style="rounded=1;whiteSpace=wrap;html=1;verticalAlign=top;" vertex="1" parent="1">
          <mxGeometry x="290" y="70" width="210" height="380" as="geometry" />
        </mxCell>
        <mxCell id="wVAZ-YzccNhZugPFJvmi-21" style="edgeStyle=orthogonalEdgeStyle;rounded=0;orthogonalLoop=1;jettySize=auto;html=1;exitX=0;exitY=0.75;exitDx=0;exitDy=0;entryX=1;entryY=0.75;entryDx=0;entryDy=0;" edge="1" parent="1" source="wVAZ-YzccNhZugPFJvmi-2" target="wVAZ-YzccNhZugPFJvmi-13">
          <mxGeometry relative="1" as="geometry" />
        </mxCell>
        <mxCell id="wVAZ-YzccNhZugPFJvmi-2" value="Native Execution Plan" style="rounded=1;whiteSpace=wrap;html=1;verticalAlign=top;" vertex="1" parent="1">
          <mxGeometry x="310" y="240" width="170" height="100" as="geometry" />
        </mxCell>
        <mxCell id="wVAZ-YzccNhZugPFJvmi-19" style="edgeStyle=orthogonalEdgeStyle;rounded=0;orthogonalLoop=1;jettySize=auto;html=1;exitX=0;exitY=0.75;exitDx=0;exitDy=0;entryX=1;entryY=0.75;entryDx=0;entryDy=0;" edge="1" parent="1" source="wVAZ-YzccNhZugPFJvmi-4" target="t5OBkkhKOG6cYtw1sPyQ-18">
          <mxGeometry relative="1" as="geometry" />
        </mxCell>
        <mxCell id="wVAZ-YzccNhZugPFJvmi-4" value="Parquet Decoding" style="rounded=1;whiteSpace=wrap;html=1;verticalAlign=top;" vertex="1" parent="1">
          <mxGeometry x="305" y="110" width="180" height="100" as="geometry" />
        </mxCell>
        <mxCell id="wVAZ-YzccNhZugPFJvmi-6" value="" style="shape=image;verticalLabelPosition=bottom;labelBackgroundColor=default;verticalAlign=top;aspect=fixed;imageAspect=0;image=data:image/svg+xml,PHN2ZyB4bWxucz0iaHR0cDovL3d3dy53My5vcmcvMjAwMC9zdmciIGZpbGw9Im5vbmUiIHZpZXdCb3g9IjAgMCA4MDEgMTY4IiBoZWlnaHQ9IjE2OCIgd2lkdGg9IjgwMSI+JiN4YTs8ZyBjbGlwLXBhdGg9InVybCgjY2xpcDBfMV8xODEpIj4mI3hhOzxwYXRoIGZpbGw9InVybCgjcGFpbnQwX2xpbmVhcl8xXzE4MSkiIGQ9Ik03Ni4xMjk3IDE2OEM4OC40NTk3IDE2OCA5OS42MDk3IDE1OC4yNSAxMDcuNTggMTQyLjU1QzEyNy4yMyAxNDQuNiAxNDMuMDkgMTM5Ljk5IDE0OS43NiAxMjguNTFDMTU2LjI5IDExNy4yNSAxNTIuNjUgMTAxLjY4IDE0MS41OCA4Ni4wOUMxNTIuMzYgNzAuNjcgMTU1Ljg1IDU1LjMyIDE0OS4zOSA0NC4xOUMxNDMuMDEgMzMuMTkgMTI4LjE5IDI4LjUgMTA5LjY5IDI5LjkyQzEwMS42NSAxMS42MiA4OS41OTk3IDAgNzYuMTI5NyAwQzYyLjY1OTcgMCA1MC40OTk3IDExLjczIDQyLjQ0OTcgMzAuMThDMjQuMzQ5NyAyOC45NyA5Ljg3OTY2IDMzLjY4IDMuNTk5NjYgNDQuNTFDLTIuODEwMzQgNTUuNTYgMC41ODk2NTYgNzAuNzggMTEuMTg5NyA4Ni4wOUMwLjI5OTY1NiAxMDEuNTcgLTMuMjQwMzQgMTE3LjAxIDMuMjM5NjYgMTI4LjE4QzkuODA5NjYgMTM5LjUgMjUuMzA5NyAxNDQuMTMgNDQuNTU5NyAxNDIuMzFDNTIuNTM5NyAxNTguMTUgNjMuNzI5NyAxNjggNzYuMTI5NyAxNjhaTTUyLjcxOTcgMTQxLjE5QzU5LjUwOTcgMTU0LjIxIDY4LjYxOTcgMTYyLjE4IDc4LjYzOTcgMTYyLjE4Qzg4LjY1OTcgMTYyLjE4IDk3LjYzOTcgMTU0LjYzIDEwNC43NiAxNDIuMjJDOTUuNzQ5NyAxNDEuMDEgODYuMDI5NyAxMzguNDYgNzYuMDc5NyAxMzQuNThDNjguMDQ5NyAxMzcuNjUgNjAuMTc5NyAxMzkuODYgNTIuNzE5NyAxNDEuMTlaTTY1LjA2OTcgMTI5Ljc3QzU5LjYzOTcgMTMxLjUyIDU0LjM0OTcgMTMyLjg0IDQ5LjMwOTcgMTMzLjcyQzQ3LjM2OTcgMTI4Ljg3IDQ1LjY5OTcgMTIzLjU0IDQ0LjM1OTcgMTE3LjgyQzQ3LjY3OTcgMTIwLjA3IDUxLjE0OTcgMTIyLjI1IDU0Ljc0OTcgMTI0LjMyQzU4LjE3OTcgMTI2LjI5IDYxLjYxOTcgMTI4LjExIDY1LjA1OTcgMTI5Ljc3SDY1LjA2OTdaTTc2LjExOTcgMTI1LjY4QzgyLjA1OTcgMTIzLjIgODguMDg5NyAxMjAuMjQgOTQuMDc5NyAxMTYuNzlDMTAyLjc2IDExMS44IDExMC42MSAxMDYuMjUgMTE3LjQxIDEwMC40M0MxMTguMDEgOTUuMTMgMTE4LjMzIDg5LjY0IDExOC4zMyA4NEMxMTguMzMgNzYuNzkgMTE3LjgxIDY5LjggMTE2Ljg0IDYzLjE3QzExMS4xMSA1OC41MyAxMDQuNzMgNTQuMTIgOTcuNzc5NyA1MC4xM0M5MC41NDk3IDQ1Ljk4IDgzLjIzOTcgNDIuNTcgNzYuMDY5NyAzOS45MUM2OS4xNzk3IDQyLjUyIDYyLjE1OTcgNDUuODIgNTUuMjE5NyA0OS44MUM1MC44NTk3IDUyLjMyIDQ2LjcwOTcgNTQuOTkgNDIuODE5NyA1Ny43OEM0MS4zOTk3IDY1Ljk4IDQwLjYyOTcgNzQuOCA0MC42Mjk3IDg0QzQwLjYyOTcgOTEuNjUgNDEuMTU5NyA5OS4wNSA0Mi4xNTk3IDEwNi4wNEM0Ny4yOTk3IDEwOS45NCA1Mi45MTk3IDExMy42NiA1OC45Mjk3IDExNy4xMkM2NC42NTk3IDEyMC40MSA3MC40Mjk3IDEyMy4yNyA3Ni4xMTk3IDEyNS42OFpNODcuMTI5NyAxMjkuODNDOTAuODM5NyAxMjguMDcgOTQuNTQ5NyAxMjYuMTIgOTguMjQ5NyAxMjRDMTA0LjQyIDEyMC40NSAxMTAuMTggMTE2LjYxIDExNS40OCAxMTIuNThDMTEzLjc5IDEyMC43MyAxMTEuNDIgMTI4LjIyIDEwOC41MiAxMzQuNzZDMTAxLjgyIDEzMy45NSA5NC42MDk3IDEzMi4zIDg3LjEyOTcgMTI5LjgzWk0xMTcuNzEgMTEwLjg0QzExNi4xNiAxMTkuNjUgMTEzLjg3IDEyNy44IDExMC45OCAxMzUuMDNDMTI3LjQ5IDEzNi41NiAxNDAuNTIgMTMyLjc5IDE0NS45NSAxMjMuNDRDMTUxLjE3IDExNC40MyAxNDguNTcgMTAxLjU4IDE0MCA4OC4yOEMxMzQuMjYgOTYuMDEgMTI2LjcxIDEwMy43IDExNy43MSAxMTAuODRaTTEzNi41NiA3OS42MUMxNDUuNDYgNjYuNTkgMTQ4LjMzIDUzLjk5IDE0My4wOCA0NC45M0MxMzcuOTkgMzYuMTYgMTI2LjAyIDMxLjk2IDExMC43NiAzMi40M0MxMTQuMyA0MS4xNCAxMTYuOTcgNTEuMjMgMTE4LjUgNjIuMkMxMjUuNDYgNjcuNzYgMTMxLjUzIDczLjY0IDEzNi41NSA3OS42MUgxMzYuNTZaTTEwOC4yMSAzMi41NUMxMTEuODYgNDAuNiAxMTQuNyA1MC4xMSAxMTYuNDMgNjAuNTdDMTEwLjk4IDU2LjM3IDEwNS4wMSA1Mi4zNyA5OC42MDk3IDQ4LjY5QzkxLjk1OTcgNDQuODcgODUuMjM5NyA0MS42MiA3OC42MTk3IDM4Ljk2Qzg5LjA1OTcgMzUuMjQgOTkuMTQ5NyAzMy4xMSAxMDguMiAzMi41NEwxMDguMjEgMzIuNTVaTTEwNy4wOCAzMC4xNkM5Ny40Mzk3IDMxLjE4IDg2Ljg4OTcgMzMuNzkgNzYuMDc5NyAzNy45OEM2Ny4yOTk3IDM0LjY1IDU4LjcwOTcgMzIuMzUgNTAuNjQ5NyAzMS4xQzU3LjU5OTcgMTUuNTYgNjcuNTY5NyA1LjgzIDc4LjYzOTcgNS44M0M4OS43MDk3IDUuODMgOTkuNzE5NyAxNS4xOCAxMDcuMDggMzAuMTZaTTczLjUxOTcgMzguOTlDNjUuMjI5NyAzNi4xIDU3LjE2OTcgMzQuMjEgNDkuNjg5NyAzMy4zMkM0Ni45ODk3IDM5Ljg0IDQ0Ljc5OTcgNDcuMjggNDMuMjQ5NyA1NS4zOEM0Ni43ODk3IDUyLjk0IDUwLjQ5OTcgNTAuNiA1NC4zNzk3IDQ4LjM3QzYwLjc0OTcgNDQuNzEgNjcuMTY5NyA0MS41OCA3My41MTk3IDM4Ljk5Wk0zMy43MTk3IDYyLjVDMzUuMjI5NyA1MS41NCAzNy44Njk3IDQxLjQ2IDQxLjM3OTcgMzIuNzRDMjYuNTI5NyAzMi40NiAxNC45MDk3IDM2LjY2IDkuOTE5NjYgNDUuMjZDNC43MDk2NiA1NC4yNCA3LjQ4OTY2IDY2LjY4IDE2LjE5OTcgNzkuNThDMjEuMDg5NyA3My43MyAyNi45Nzk3IDY3Ljk2IDMzLjcxOTcgNjIuNVpNMTIuNzY5NyA4OC4zQzE4LjM2OTcgOTUuOSAyNS43MTk3IDEwMy40OCAzNC40OTk3IDExMC41NEMzNi4wMjk3IDExOS4zNiAzOC4zMDk3IDEyNy41MyA0MS4xNzk3IDEzNC43OEMyNS4wNTk3IDEzNi4xMSAxMi4zNzk3IDEzMi4zMSA3LjAzOTY2IDEyMy4xMkMxLjg1OTY2IDExNC4xOSA0LjM2OTY2IDEwMS40OCAxMi43NTk3IDg4LjMxTDEyLjc2OTcgODguM1pNMTcuNTY5NyA4MS41NEMyMS45MDk3IDc1Ljk5IDI3LjIxOTcgNzAuNDUgMzMuMzc5NyA2NS4xN0MzMi42NTk3IDcxLjIyIDMyLjI2OTcgNzcuNTMgMzIuMjY5NyA4NEMzMi4yNjk3IDg4LjkxIDMyLjQ4OTcgOTMuNzIgMzIuOTA5NyA5OC40QzI2Ljc5OTcgOTIuODkgMjEuNjE5NyA4Ny4xOCAxNy41NTk3IDgxLjUzTDE3LjU2OTcgODEuNTRaTTEzNS4xOSA4MS41NUMxMzEgODcuMzIgMTI1LjY1IDkzLjE1IDExOS4zMiA5OC43NkMxMTkuNzYgOTMuOTcgMTIwIDg5LjAzIDEyMCA4NEMxMjAgNzcuNDEgMTE5LjYgNzAuOTkgMTE4Ljg1IDY0Ljg0QzEyNS4yMiA3MC4yMSAxMzAuNzIgNzUuODcgMTM1LjE5IDgxLjU1WiIgY2xpcC1ydWxlPSJldmVub2RkIiBmaWxsLXJ1bGU9ImV2ZW5vZGQiLz4mI3hhOzxwYXRoIGZpbGw9IiMxRjI5MzciIGQ9Ik0yMDQuMzQgNDUuOTdIMTkyLjgzTDE5MC40NyA1Mi4ySDE4NS4yTDE5Ni4wNyAyMy44OEgyMDEuNDdMMjEyLjU0IDUyLjJIMjA2Ljc4TDIwNC4zNCA0NS45N1pNMjAyLjc0IDQxLjc0TDE5OC41NCAzMC45OUwxOTQuNDYgNDEuNzRIMjAyLjczSDIwMi43NFoiLz4mI3hhOzxwYXRoIGZpbGw9IiMxRjI5MzciIGQ9Ik0yMzUuNTUgMjMuODhIMjQ2LjgyQzI0OS41OSAyMy44OCAyNTEuOSAyNC43MyAyNTMuNzMgMjYuNDRDMjU1LjU3IDI4LjE0IDI1Ni40OSAzMC4zOCAyNTYuNDkgMzMuMTVDMjU2LjQ5IDM1LjkyIDI1NS41NyAzOC4yIDI1My43MyAzOS45QzI1MS44OSA0MS42IDI0OS41OSA0Mi40NiAyNDYuODIgNDIuNDZIMjQwLjk1VjUyLjIxSDIzNS41NlYyMy44OUwyMzUuNTUgMjMuODhaTTI0MC45NCAzNy4yNkgyNDYuODVDMjQ4IDM3LjI2IDI0OC45NiAzNi44NyAyNDkuNzMgMzYuMUMyNTAuNSAzNS4zIDI1MC44OSAzNC4zMiAyNTAuODkgMzMuMTRDMjUwLjg5IDMxLjk2IDI1MC41IDMxIDI0OS43MyAzMC4yMkMyNDguOTggMjkuNDUgMjQ4LjAyIDI5LjA2IDI0Ni44NSAyOS4wNkgyNDAuOTRWMzcuMjVWMzcuMjZaIi8+JiN4YTs8cGF0aCBmaWxsPSIjMUYyOTM3IiBkPSJNMjkzLjY3IDQ1Ljk3SDI4Mi4xNkwyNzkuOCA1Mi4ySDI3NC41M0wyODUuNCAyMy44OEgyOTAuNzlMMzAxLjg2IDUyLjJIMjk2LjFMMjkzLjY2IDQ1Ljk3SDI5My42N1pNMjkyLjA3IDQxLjc0TDI4Ny44NyAzMC45OUwyODMuNzkgNDEuNzRIMjkyLjA2SDI5Mi4wN1oiLz4mI3hhOzxwYXRoIGZpbGw9IiMxRjI5MzciIGQ9Ik0zMzUuOTkgMjNDMzM4LjU3IDIzIDM0MC45MiAyMy42OCAzNDMuMDIgMjUuMDRDMzQ1LjE1IDI2LjM3IDM0Ni44NCAyOC4xOCAzNDguMSAzMC40N0wzNDMuMSAzMi44N0MzNDEuMzcgMjkuNTcgMzM5IDI3LjkyIDMzNS45OSAyNy45MkMzMzMuNjIgMjcuOTIgMzMxLjY1IDI4LjkxIDMzMC4wNyAzMC44OEMzMjguNTMgMzIuODIgMzI3Ljc1IDM1LjIyIDMyNy43NSAzOC4wN0MzMjcuNzUgNDAuOTIgMzI4LjUyIDQzLjMyIDMzMC4wNyA0NS4yNkMzMzEuNjIgNDcuMTggMzMzLjU5IDQ4LjE0IDMzNS45OSA0OC4xNEMzMzcuNDUgNDguMTQgMzM4LjgxIDQ3LjczIDM0MC4wNyA0Ni45QzM0MS4zMiA0Ni4wNSAzNDIuMzIgNDQuOTMgMzQzLjA3IDQzLjU0TDM0Ny45OSA0NS45QzM0Ni43OSA0OC4xNCAzNDUuMTMgNDkuODkgMzQyLjk5IDUxLjE3QzM0MC44NiA1Mi40MiAzMzguNTMgNTMuMDUgMzM2IDUzLjA1QzMzMS45NSA1My4wNSAzMjguNjMgNTEuNjUgMzI2LjA1IDQ4Ljg2QzMyMy40NyA0Ni4wNCAzMjIuMTcgNDIuNDQgMzIyLjE3IDM4LjA3QzMyMi4xNyAzMy43IDMyMy40OCAzMC4xMyAzMjYuMDkgMjcuMjhDMzI4LjczIDI0LjQzIDMzMi4wMyAyMy4wMSAzMzYgMjMuMDFMMzM1Ljk5IDIzWiIvPiYjeGE7PHBhdGggZmlsbD0iIzFGMjkzNyIgZD0iTTM5My40OSA1Mi4ySDM4OC4wOVY0MC42MUgzNzcuMVY1Mi4ySDM3MS43MVYyMy44OEgzNzcuMVYzNS40M0gzODguMDlWMjMuODhIMzkzLjQ5VjUyLjJaIi8+JiN4YTs8cGF0aCBmaWxsPSIjMUYyOTM3IiBkPSJNNDM1LjE3IDI5LjA3SDQyMy45VjM1LjQ2SDQzMi40MVY0MC42NUg0MjMuOVY0N0g0MzUuMTdWNTIuMTlINDE4LjUxVjIzLjg3SDQzNS4xN1YyOS4wNlYyOS4wN1oiLz4mI3hhOzxwYXRoIGZpbGw9IiMxRjI5MzciIGQ9Ik0xODUgNzYuMUgyMDcuMjVDMjE4LjYzIDc2LjEgMjI3LjU4IDc5LjMgMjM0LjEgODUuNjlDMjQwLjY5IDkyLjAyIDI0My45OCAxMDAuMTQgMjQzLjk4IDExMC4wNEMyNDMuOTggMTE5Ljk0IDI0MC42OSAxMjguMSAyMzQuMSAxMzQuNDlDMjI3LjUxIDE0MC44OCAyMTguNTMgMTQ0LjA4IDIwNy4xNSAxNDQuMDhIMTg0Ljk5Vjc2LjFIMTg1Wk0xOTkuOTYgOTAuNDlWMTI5LjdIMjA2LjY3QzIwOS41NSAxMjkuNyAyMTIuMiAxMjkuMzggMjE0LjYzIDEyOC43NEMyMTcuMTIgMTI4LjEgMjE5LjQzIDEyNy4wOCAyMjEuNTQgMTI1LjY3QzIyMy43MSAxMjQuMjYgMjI1LjQxIDEyMi4yNSAyMjYuNjIgMTE5LjYzQzIyNy44MyAxMTYuOTUgMjI4LjQ0IDExMy43NSAyMjguNDQgMTEwLjA0QzIyOC40NCAxMDYuMzMgMjI3LjgzIDEwMy4xNyAyMjYuNjIgMTAwLjU1QzIyNS40IDk3LjkzIDIyMy43MSA5NS45MiAyMjEuNTQgOTQuNTFDMjE5LjQzIDkzLjEgMjE3LjE2IDkyLjA4IDIxNC43MyA5MS40NEMyMTIuMyA5MC44IDIwOS42MSA5MC40OCAyMDYuNjcgOTAuNDhIMTk5Ljk2VjkwLjQ5WiIvPiYjeGE7PHBhdGggZmlsbD0iIzFGMjkzNyIgZD0iTTI5MS44MiAxMzAuODVIMjY0Ljk2TDI1OS45NyAxNDQuMDhIMjQ1LjM5TDI3MS4zOCA3Ni4xSDI4Ni4zNEwzMTIuOTEgMTQ0LjA4SDI5Ni44OUwyOTEuODEgMTMwLjg1SDI5MS44MlpNMjg3LjQgMTE5LjM1TDI3OC4yOSA5NS43NkwyNjkuMzcgMTE5LjM1SDI4Ny40WiIvPiYjeGE7PHBhdGggZmlsbD0iIzFGMjkzNyIgZD0iTTM2Mi43IDkwLjQ5SDM0Mi45NFYxNDQuMDlIMzI3Ljk4VjkwLjQ5SDMwOC41MVY3Ni4xMUgzNjIuN1Y5MC40OVoiLz4mI3hhOzxwYXRoIGZpbGw9IiMxRjI5MzciIGQ9Ik00MDQuNzcgMTMwLjg1SDM3Ny45MkwzNzIuOTMgMTQ0LjA4SDM1OC4zNUwzODQuMzQgNzYuMUgzOTkuM0w0MjUuODcgMTQ0LjA4SDQwOS44NUw0MDQuNzcgMTMwLjg1Wk00MDAuMzYgMTE5LjM1TDM5MS4yNSA5NS43NkwzODIuMzMgMTE5LjM1SDQwMC4zNloiLz4mI3hhOzxwYXRoIGZpbGw9IiMxRjI5MzciIGQ9Ik00NzQuNzMgOTAuNDlINDQ4LjQ1VjEwMi45NUg0NjguNFYxMTcuMzNINDQ4LjQ1VjE0NC4wOEg0MzMuNDlWNzYuMUg0NzQuNzNWOTAuNDhWOTAuNDlaIi8+JiN4YTs8cGF0aCBmaWxsPSIjMUYyOTM3IiBkPSJNNTQxLjcxIDc2LjFWMTE4Ljk2QzU0MS42NSAxMjcuMjcgNTM4Ljk2IDEzMy44NSA1MzMuNjUgMTM4LjcxQzUyOC40MSAxNDMuNTcgNTIxLjUzIDE0NiA1MTMuMDMgMTQ2QzUwNC41MyAxNDYgNDk3Ljc4IDE0My41NyA0OTIuNDEgMTM4LjcxQzQ4Ny4wNCAxMzMuODUgNDg0LjM5IDEyNy4yNyA0ODQuNDUgMTE4Ljk2Vjc2LjFINDk5LjMyVjExOS4wNUM0OTkuMzIgMTIyLjg4IDUwMC42IDEyNS45NSA1MDMuMTYgMTI4LjI1QzUwNS43OCAxMzAuNDkgNTA5LjA4IDEzMS42MSA1MTMuMDQgMTMxLjYxQzUxNyAxMzEuNjEgNTIwLjI3IDEzMC40OSA1MjIuODIgMTI4LjI1QzUyNS4zOCAxMjUuOTUgNTI2LjY5IDEyMi44OCA1MjYuNzUgMTE5LjA1Vjc2LjFINTQxLjcxWiIvPiYjeGE7PHBhdGggZmlsbD0iIzFGMjkzNyIgZD0iTTU3OC42OSA3My45OUM1ODUuNzIgNzMuOTkgNTkxLjk2IDc1LjU5IDU5Ny4zOSA3OC43OEw1OTAuNzcgOTEuMjRDNTg1Ljk4IDg5LjE5IDU4MS40MyA4OC4xNyA1NzcuMTUgODguMTdDNTcwLjk1IDg4LjE3IDU2Ny44NSA5MC4yNSA1NjcuODUgOTQuNEM1NjcuODUgOTYuNDUgNTY5LjAzIDk4LjE3IDU3MS40IDk5LjU4QzU3My44MyAxMDAuOTIgNTc3LjI4IDEwMi4zOSA1ODEuNzYgMTAzLjk5QzU4Ni4zIDEwNS41MiA1ODkuNzIgMTA2Ljk2IDU5Mi4wMiAxMDguM0M1OTguMjIgMTExLjg4IDYwMS4zMiAxMTcuMjUgNjAxLjMyIDEyNC40MUM2MDEuMzIgMTMxLjEyIDU5OC44NiAxMzYuNCA1OTMuOTMgMTQwLjIzQzU4OS4wMSAxNDQuMDcgNTgyLjg3IDE0NS45OCA1NzUuNTIgMTQ1Ljk4QzU3MS4zNiAxNDUuOTggNTY3LjA1IDE0NS4yMSA1NjIuNTcgMTQzLjY4QzU1OC4wOSAxNDIuMTUgNTU0LjYxIDE0MC4zOSA1NTIuMTIgMTM4LjQxTDU2MC4xOCAxMjYuNDNDNTY3LjAyIDEzMC40NiA1NzMuMjIgMTMyLjIxIDU3OC43OSAxMzEuN0M1ODAuOTYgMTMxLjUxIDU4Mi43NiAxMzAuNzQgNTg0LjE2IDEyOS40QzU4NS42MyAxMjguMDYgNTg2LjI0IDEyNi40MyA1ODUuOTggMTI0LjUxQzU4NS43MiAxMjIuNzIgNTg0LjIyIDEyMS4yNSA1ODEuNDcgMTIwLjFDNTc4LjcyIDExOC44OSA1NzUuMTQgMTE3LjQ4IDU3MC43MyAxMTUuODhDNTY2LjM4IDExNC4yOCA1NjIuODMgMTEyLjQgNTYwLjA4IDExMC4yMkM1NTUuMDMgMTA2LjEzIDU1Mi41IDEwMS4wNSA1NTIuNSA5NC45OEM1NTIuNSA5MS45OCA1NTMuMDEgODkuMjYgNTU0LjAzIDg2LjgzQzU1NS4wNSA4NC40IDU1Ni40IDgyLjQyIDU1OC4wNiA4MC44OUM1NTkuNzkgNzkuMjkgNTYxLjggNzcuOTggNTY0LjEgNzYuOTZDNTY2LjQgNzUuODcgNTY4Ljc3IDc1LjExIDU3MS4yIDc0LjY2QzU3My42MyA3NC4yMSA1NzYuMTIgNzMuOTkgNTc4LjY4IDczLjk5SDU3OC42OVoiLz4mI3hhOzxwYXRoIGZpbGw9IiMxRjI5MzciIGQ9Ik02MjYuNzkgMTQ0LjA4SDYxMS44M1Y3Ni4xSDYyNi43OVYxNDQuMDhaIi8+JiN4YTs8cGF0aCBmaWxsPSIjMUYyOTM3IiBkPSJNNjQ3LjA0IDg0LjE2QzY1My44OCA3Ny4zOCA2NjIuNDggNzQgNjcyLjg0IDc0QzY4My4yIDc0IDY5MS43MyA3Ny4zOSA2OTguNDUgODQuMTZDNzA1LjIzIDkwLjg3IDcwOC42MiA5OS40IDcwOC42MiAxMDkuNzZDNzA4LjYyIDEyMC4xMiA3MDUuMzMgMTI4LjY4IDY5OC43NCAxMzUuNDVDNjkyLjE1IDE0Mi4xNiA2ODMuNTIgMTQ1LjY4IDY3Mi44NCAxNDZDNjYyLjQ4IDE0NiA2NTMuODggMTQyLjU4IDY0Ny4wNCAxMzUuNzRDNjQwLjI2IDEyOC44NCA2MzYuODcgMTIwLjIxIDYzNi44NyAxMDkuODVDNjM2Ljg3IDk5LjQ5IDY0MC4yNiA5MC45MyA2NDcuMDQgODQuMTVWODQuMTZaTTY3Mi44NCA4Ny42MUM2NjYuNjQgODcuNjEgNjYxLjY4IDg5LjY5IDY1Ny45NyA5My44NEM2NTQuMjYgOTcuOTkgNjUyLjQxIDEwMy4zIDY1Mi40MSAxMDkuNzZDNjUyLjQxIDExNi4yMiA2NTQuMjYgMTIxLjYyIDY1Ny45NyAxMjUuOTZDNjYxLjc0IDEzMC4yNCA2NjYuNyAxMzIuMzggNjcyLjg0IDEzMi4zOEM2NzguOTggMTMyLjM4IDY4My45NiAxMzAuMjQgNjg3LjYxIDEyNS45NkM2OTEuMjUgMTIxLjY4IDY5My4wOCAxMTYuMzEgNjkzLjA4IDEwOS44NUM2OTMuMDggMTAzLjM5IDY5MS4yNiA5OC4xMiA2ODcuNjEgOTQuMDNDNjg0LjAzIDg5Ljg4IDY3OS4xMSA4Ny43MyA2NzIuODQgODcuNjFaIi8+JiN4YTs8cGF0aCBmaWxsPSIjMUYyOTM3IiBkPSJNNzc1IDE0NC4wOEg3NTkuNjVMNzMyLjcgMTAxLjk5VjE0NC4wOEg3MTguN1Y3Ni4xSDczMi45OUw3NjEgMTE4LjU3Vjc2LjFINzc1VjE0NC4wOFoiLz4mI3hhOzxwYXRoIGZpbGw9IiMxRjI5MzciIGQ9Ik03ODguMDEgNzguMThINzg0LjYyVjg3LjQ0SDc4Mi40NlY3OC4xOEg3NzkuMTNWNzYuMUg3ODguMDFWNzguMThaTTgwMC41NiA4Ny40NUg3OTguNDhWODAuMTdMNzk1LjUgODUuNzlINzk0LjEyTDc5MS4xNCA4MC4xN0w3OTEuMTIgODcuNDVINzg5LjFWNzYuMTFINzkxLjEzTDc5NC44NyA4My4wNEw3OTguNDUgNzYuMTFIODAwLjUxTDgwMC41MyA4Ny40NUg4MDAuNTZaIi8+JiN4YTs8L2c+JiN4YTs8ZGVmcz4mI3hhOzxsaW5lYXJHcmFkaWVudCBncmFkaWVudFVuaXRzPSJ1c2VyU3BhY2VPblVzZSIgeTI9IjM2Ljc4IiB4Mj0iMTYyLjczIiB5MT0iMTE3Ljc0IiB4MT0iMTcuMDg5NyIgaWQ9InBhaW50MF9saW5lYXJfMV8xODEiPiYjeGE7PHN0b3Agc3RvcC1jb2xvcj0iI0VGNDEzNyIvPiYjeGE7PHN0b3Agc3RvcC1jb2xvcj0iI0ZCQjA0MiIgb2Zmc2V0PSIxIi8+JiN4YTs8L2xpbmVhckdyYWRpZW50PiYjeGE7PGNsaXBQYXRoIGlkPSJjbGlwMF8xXzE4MSI+JiN4YTs8cmVjdCBmaWxsPSJ3aGl0ZSIgaGVpZ2h0PSIxNjgiIHdpZHRoPSI4MDAuNTYiLz4mI3hhOzwvY2xpcFBhdGg+JiN4YTs8L2RlZnM+JiN4YTs8L3N2Zz4=;" vertex="1" parent="1">
          <mxGeometry x="323.48" y="273.6" width="143.03" height="30" as="geometry" />
        </mxCell>
        <mxCell id="wVAZ-YzccNhZugPFJvmi-7" value="" style="shape=image;verticalLabelPosition=bottom;labelBackgroundColor=default;verticalAlign=top;aspect=fixed;imageAspect=0;image=data:image/png,iVBORw0KGgoAAAANSUhEUgAABwgAAAOoCAMAAADyHlBJAAADAFBMVEUAAAABAQECAgIDAwMEBAQFBQUGBgYHBwcICAgJCQkKCgoLCwsMDAwNDQ0ODg4PDw8QEBARERESEhITExMUFBQVFRUWFhYXFxcYGBgZGRkaGhobGxscHBwdHR0eHh4fHx8gICAhISEiIiIjIyMkJCQlJSUmJiYnJycoKCgpKSkqKiorKyssLCwtLS0uLi4vLy8wMDAxMTEyMjIzMzM0NDQ1NTU2NjY3Nzc4ODg5OTk6Ojo7Ozs8PDw9PT0+Pj4/Pz9AQEBBQUFCQkJDQ0NERERFRUVGRkZHR0dISEhJSUlKSkpLS0tMTExNTU1OTk5PT09QUFBRUVFSUlJTU1NUVFRVVVVWVlZXV1dYWFhZWVlaWlpbW1tcXFxdXV1eXl5fX19gYGBhYWFiYmJjY2NkZGRlZWVmZmZnZ2doaGhpaWlqampra2tsbGxtbW1ubm5vb29wcHBxcXFycnJzc3N0dHR1dXV2dnZ3d3d4eHh5eXl6enp7e3t8fHx9fX1+fn5/f3+AgICBgYGCgoKDg4OEhISFhYWGhoaHh4eIiIiJiYmKioqLi4uMjIyNjY2Ojo6Pj4+QkJCRkZGSkpKTk5OUlJSVlZWWlpaXl5eYmJiZmZmampqbm5ucnJydnZ2enp6fn5+goKChoaGioqKjo6OkpKSlpaWmpqanp6eoqKipqamqqqqrq6usrKytra2urq6vr6+wsLCxsbGysrKzs7O0tLS1tbW2tra3t7e4uLi5ubm6urq7u7u8vLy9vb2+vr6/v7/AwMDBwcHCwsLDw8PExMTFxcXGxsbHx8fIyMjJycnKysrLy8vMzMzNzc3Ozs7Pz8/Q0NDR0dHS0tLT09PU1NTV1dXW1tbX19fY2NjZ2dna2trb29vc3Nzd3d3e3t7f39/g4ODh4eHi4uLj4+Pk5OTl5eXm5ubn5+fo6Ojp6enq6urr6+vs7Ozt7e3u7u7v7+/w8PDx8fHy8vLz8/P09PT19fX29vb39/f4+Pj5+fn6+vr7+/v8/Pz9/f3+/v7////isF19AAAACXBIWXMAAC4jAAAuIwF4pT92AAAgAElEQVR4nO3dd4DlVPn/8bu9sezSexFQEURpAlJEOj9AQYoFVkCUKogKfCkqUkVAQBFFUYogiCACSkelCCtdunSQDtLZXbZOfjtz78zckpznnOTkJifP+/WPMpOcfO41Ph9mJjepRQAAKFYrOgAAAEWiCAEAqlGEAADVKEIAgGoUIQBANYoQAKAaRQgAUI0iBACoRhECAFSjCAEAqlGEAADVKEIAgGoUIQBANYoQAKAaRQgAUI0iBACoRhECAFSjCAEAqlGEAADVKEIAgGoUIQBANYoQAKAaRQgAUI0iBACoRhECAFSjCAEAqlGEAADVKEIAgGoUIQBANYoQAKAaRQgAUI0iBACoRhECAFSjCAEAqlGEAADVKEIAgGoUIQBANYoQAKAaRQgAUI0iBACoRhECAFSjCAEAqlGEAADVKEIAgGoUIQBANYoQAKAaRQgAUI0iBACoRhECAFSjCAEAqlGEAADVKEIAgGoUIQBANYoQAKAaRQgAUI0iBACoRhECAFSjCAEAqlGEAADVKEIAgGoUIQBANYoQAKAaRQgAUI0iBACoRhECAFSjCAEAqlGEAADVKEIAgGoUIQBANYoQAKAaRQgAUI0iBACoRhECAFSjCAEAqlGEAADVKEIAgGoUIQBANYoQAKAaRQgAUI0iBACoRhECAFSjCAEAqlGEAADVKEIAgGoUIQBANYoQAKAaRQgAUI0iBACoRhECAFSjCAEAqlGEAADVKEIAgGoUIQBANYoQAKAaRQgAUI0iBACoRhECAFSjCAEAqlGEAADVKEIAgGoUIQBANYoQAKAaRQgAUI0iBACoRhECAFSjCAEAqlGEAADVKEIAgGoUIQBANYoQAKAaRQgAUI0iBACoRhECAFSjCAEAqlGEAADVKEIAgGoUIQBANYoQAKAaRQgAUI0iBACoRhECAFSjCAEAqlGEAADVKEIAgGoUIQBANYoQAKAaRQgAUI0iBACoRhECAFSjCAEAqlGEAADVKEIAgGoUIQBANYoQAKAaRQgAUI0iBACoRhECAFSjCAEAqlGEAADVKEIAgGoUIQBANYoQAKAaRQgAUI0iBACoRhECAFSjCAEAqlGEAADVKEIAgGoUIQBANYoQAKAaRQgAUI0iBACoRhECAFSjCAEAqlGEAADVKEIAgGoUIQBANYoQAKAaRQgAUI0iBACoRhECAFSjCAEAqlGEAADVKEIAgGoUIQBANYoQAKAaRQgAUI0iBACoRhECAFSjCAEAqlGEAADVKEIAgGoUIQBANYoQAKAaRQgAUI0iBACoRhECAFSjCAEAqlGEAADVKEIAgGoUIQBANYoQAKAaRQgAUI0iBACoRhECAFSjCAEAqlGEAADVKEIAgGoUIQBANYoQAKAaRQgAUI0iBACoRhECAFSjCAEAqlGEAADVKEIAgGoUIQBANYoQAKAaRQgAUI0iBACoRhECAFSjCAEAqlGEAADVKEIAgGoUIQBANYoQAKAaRQgAUI0iBACoRhECAFSjCAEAqlGEAADVKEIAgGoUIQBANYoQAKAaRQgAUI0iBACoRhECAFSjCAEAqlGEAADVKEIAgGoUIQBANYoQAKAaRQgAUI0iBACoRhEC1fb000UnsENOFIYiBCrtW7XaPnOKDmGBnCgORQhU2TO1uXYt/+QmJwpEEQJVNrl3cNe+PKvoHBJyokAUIVBl9cFd/p9hyIkCUYRAlTUGd+l/hiEnCkQRAlXWP7jLPrnJiQJRhECVDQzukk9ucqJAFCFQZYODu9x/1yInCkQRAlXWNLhL/TMMOVEgihCosubBXebJTU4UiCIEqqxlcJd4cpMTBaIIgSprHdzlndzkRIEoQqDK2gZ3aSc3OVEgihCosvbBXdbJTU4UiCIEqqxjcJd0cpMTBaIIgSrrHNzlnNzkRIEoQqDKYgZ3KSc3OVEgihCosrjBXcbJTU4UiCIEqix2cJdwcpMTBaIIgSqLH9zlm9zkRIEoQqDKEgZ36SY3OVEgihCosqTBXbbJTU4UiCIEqixxcJdscpMTBaIIgSpLHtzlmtzkRIEoQqDKDIO7VJObnCgQRQhUmWlwl2lykxMFogiBKjMO7hJNbnKiQBQhUGXmwV2eyU1OFIgiBKpMGNylmdzkRIEoQqDKpMFdlslNThSIIgSqTBzcJZnc5ESBKEKgyuTBXY7JTU4UiCIEqsxicJdicpMTBaIIgSqzGdxlmNzkRIEoQqDKrAZ3CSY3OVEgihCoMrvBXfzkJicKRBECVWY5uAuf3OREgShCoMpsB3fRk5ucKBBFCFSZ9eAueHKTEwWiCIEqsx/cxU5ucqJAFCFQZQ6Du9DJTU4UiCIEqsxlcBc5ucmJAlGEQJU5De4CJzc5USCKEKgyt8Fd3OQmJwpEEQJV5ji4C5vc5ESBKEKgylwHd1GTm5woEEUIVJnz4C5ocpMTBaIIgSpzH9zFTG5yokAUIVBlKQZ3IZObnCgQRQhUWZrBXcTkJicKRBECVZZqcBcwucmJAlGEQJWlG9zdn9zkRIEoQqDKUg7urk9ucqJAFCFQZWkHd7cnNzlRIIoQqLLUg7vLk5ucKBBFCFRZ+sHd3clNThSIIgSqLMPg7urkJicKRBECVZZlcHdzcpMTBaIIgSrLNLi7OLnJiQJRhECVZRvc3Zvc5ESBKEKgyjIO7q5NbnKiQBQhUGVZB3e3Jjc5USCKEKiyzIO7S5ObnCgQRQhUWfbB3Z3JTU4UiCIEqszD4O7K5CYnCkQRAlXmY3B3Y3KTEwWiCIEq8zK4uzC5yYkCUYRAlfkZ3PlPbnKiQBRhyUx/8JqzTzn+h8efcubld79edBiEz9Pgzn1ykxMF0lqE59TPxq+btvlN3Pk7ZNzCK2y6388f9naUZm+escGI5oN95Dv3GJM9aVjr341tLhdfUpu7bNMiBL4Gd96Tm5wokNYi3KB+Mo6fYtjG2BpLHPi4n6MMen7vkZ3H+ewNhmQUISTeBnfOk5ucKJDSInyy/2Q817CR0BpDtn7Mx1H6zTxqVML/X15NTEYRQuJvcOc7ucmJAiktwiP6z8XPGDYSW2PE4eYz2eooDU99MvEwi0xOSkYRQuJxcOc6ucmJAukswjlLDpyLhi6xaI3Pmq5nsTtK3c3zG44y6pKEZBQhJD4Hd56Tm5wokM4ivHbwVDwieSub1vjYG1mP0uemMYPbLrzVd4//6QlHfHmVIQNfGnFjfDKKEBKvgzvHyU1OFEhnEX5x8Excck7iVv2tcc1DTR781w2/2v/Dg/uv+UHGo/S6d57+DUd//Y6e/q++fNrS/V8e33plTuYivPyhZNOMUREYv4M7v8lNThRIZRG+1XxZyrWJmxnq5t7tB/b/dsajzPX2h/o3+/yzLd+YftjQxjc+Pdsy2QBjEYq/qkVVeB7cuU1ucqJAKovw580n4k6Jmxlb48r5Gt8d0nEpi9tR5tqxsdHQn3Z869L+T1T8zDpZA0WIXr4Hd16Tm5wokMoiXL3vBBy5TN9/jHozaTNzazy8cOPbm2Y7ShRd3Vho6IUx3zy38c1Fplonq6MI0cv74M5pcpMTBdJYhA/Uz7/tT63/5+lJ2wmt8c/hje/HX11ie5Ro1vKNdU6I/fbOje+eap+sD0WIXv4Hdz6Tm5wokMYiPLB++l3+yrC+/1w1aTupNfZvfD/+r4S2R4l+11hmk/hvvzy6/u2POSTrRRGiVw6DO5fJTU4USGERzlyw7+Sbf0a0Zf00/HfChlJrvNK4L+hSmY4Sfaz+/RFPJXx/70aMph88KULYymNw5zG5yYkCKSzCy+rn3j5RdGH9vx2QsKHYGts1Nngxy1Fuayyyb9JR7mps8D2HZBFFiLpcBncOk5ucKJDCIty6furdHkVT6x/fm396/IZia/RvcFWWo+xZ33BIcjc1PlyxnkOyiCJEXT6D2//kJicKpK8IG3+zW673v+9aPwnb72DWILbGvY0Nfp7hKD2Ni083Tk78jfoWIwablCKErZwGt/fJTU6/OeFEXxGeWD/vjuz97zfW//uW8VuKrfFWY4PjMhzlvsYaZyQn7r+a5iH7ZBFFiLq8BrfvyU1OmrBA+opwxfpp90Tvf5+zRN9/H/pC7JZia8xqbHBYhqP8pLFG0qUy0eAPnpfZJ4soQtTlNrg9T25y0oQFUleEjfN4nfo/HVL/p+NjNxVbY0pjg6MzHKXxMcEJhsgzb6p7yT5ZRBGiLr/B7Xdyk5MmLJC6Imxcm/KL+j89WP+nFWI3FVvj2cYGp3Z8x/4oK9e/t4HTi6AIYSvHwe11cpOTJiyQtiKcOm/fGTei/+lJjcfh3hK3rdga1zQ2uCjDURp35k76cEU8ihC28hzcPic3Of3mhBNtRXh+/YT7fP8/N/5Et1vctmJr/F9jgwfTH+X1xhKGa2XSJIsoQtTlOrg9Tm5y+s0JJ9qKcKP6+XZp/z+/XP+Yw7j3Y7aVWqOncZPQUTPTH+X+xjEucHoVFCFs5Tu4/U1ucvrNCSfKivCZ+lPfJw5+JG/z+vn325iNpda4vPH9rTIc5ZbGGlc6vQyKELZyHtzeJjc5/eaEE2VFeGT9ZNtz8CsX1L+ybszGQmtMWa7x/d9kOMr1jTVudnoZ/clufDZZf03HFmHSjq84xUAA8h7cviY3Of3mhBNdRdhTfzhg81UrU8bVv/RY59bmIpy5TePb87+X4ShXNha51+l19CezEVuESTZ0ioEA5D64PU1ucvrNCSe6irBxj5dlepq+9tX61w7t3NpYhK9s1H/eHpvlKP0/tyU+myIWRQhb+Q9uP5ObnH5zwomuImx8ev17zV+7of61xWZ3bG0owjd/PKH/rP3wlCxHoQiRry4M7tquc8hZtpxwoqoI3xlTP8/+0/zFOYvVv9j5CIn4P6g9euelx202euCcHX5npqNQhMhXNwa3j8lNTr854URVEZ5ZP8s+1frVg+pf3b5jc5u6GfbHbEehCJGvZxzOlfSyT25y+s0JJ6qKcK36Sfaz1q82Pso34vX2zS3qZuzFGY9CESJnezqcLOlln9zk9JsTLjQV4SP1U2z4a21fX6X+9dPat5frZqWH2vdxPUq2q0b5HCFEc3bLOJPtZL7Cg5x+c8KFpiJs/HZy6/avn1T/+irtX5eKcOEz4s5Vt6Nk+xwhRQhZKJObnH5zwoGiIpy1SP0E6/ht5ktD69+4u+3rxiIcucXF09sXSnGU/jvL/MXppVCEcBDK5Can35ywp6gIG7+FHD+t4zub1r+zX9uX44tw9PzLrPfVY//euUqqo/TX1e+dXgpFCBehTG5y+s0Ja4qKcNv62fWphzo0Hpxb+6B1h1St4XiU1xpf/FnSerEoQjgJZXKT029O2NJThK+NEM+7tucKpmkN16P0jKx/cW+n10IRwk0ok5ucfnPCkp4iPEU+7TZr3SNNazgf5WP1L67n9FooQjgKZXKT029O2NFThB+Xz7qh/23ZI01rOB/ly/UvTjSsOfOmupecklGEaBbK5Can35ywoqYI77I5645u2SVFa7gf5cTGF2OeftG+6GVOyShCtAhlcpPTb07YUFOE+9qcdB9qfmBEmtZwP8qdjS/+KHnRsxqbPOKUjCJEq1AmNzn95oQFLUX4wUSrk+4fzfu4t0aKo8xZoP61NZJX3aW+xegZTskoQrQJZXKT029OyLQU4UX1c2pY0iPYV65/f1Lz19xbI81R+v/P9FTSonMWrW+wsVsyihDtQpnc5PSbEyItRbhZ/ZTaIun7P65/f8y7TV9zb400R/l74yh7JO10U2OD492SUYToEMrkJqffnJAoKcLnG/c3S7yBywuNDX7d9DXn1kh1lJ7l618b9njCTpMaMZq+TxEinVAmNzn95oRASREeUz+f5ul4mvyAjetbrN30JefWSHWU6FeNw+wYv8vzjY/or+uYjCJEjFAmNzn95oSZjiLsWa5+Ou2avMm5jTNu8NJM59ZId5Ro+pKNL14Yu8uOje82/5hJESKtUCY3Of3mhJGOIuz/M9uNyZu8N7a+ycGDX3JtjXRHiaI/NPYbe3vMHuc0vrli84M6KUKkFsrkJqffnDDRUYS71s+lxU1Pff5KfZtFBs8319ZId5Ro4Bqb2oTOCr2kcS/S2p+bv0oRIr1QJjc5/eaEgYoifG9c/VQ62LTRNY3z7YqBrzi2RsqjzPXywo2vDv/hzJatpx0ypPGdL7V8nSJEBqFMbnL6zYlkKoqwf/w/YNpoduOJutt27GbZGimP0uvvA8+sWO7Mtwe++twJS/R/edk3Yw+VugivfTLZ20kroipCmdzk9JsTiVQU4br18+gT5q2+Xd9q+Kv9X3AswpRH6XPJsIGzffj6+5145i9OPnSHDw/+P2DBto9WZC5Ck1PsXi4CFsrkJqffnEiioQgfb5xGJ5k3u7ex2cn9X3ArwrRHqbt0jOH8X/y+tkUoQmQTyuQmp9+cSKChCA+tn0RDXxS2W6m+3Ur9/+xWhGmP0nDHUoln/xodS1KEyCiUyU1OvzkRT0ERzl68fg5tKm14QuNku6Pxz05FmPoo/d7dY0gtzuhjZ3asQREiq1AmNzn95kQsBUV4deMU+p204fONJtqr8c9ORZj6KIPu3bLzvB+9Z9zNuClCZBbK5Can35yIo6AIG7dmGfu+uOVG9S3nnVb/R6ciTH2UZo8dsnzzOT9y41Nei12CIkR2oUxucvrNiRgKijAsz1189G7bbbr59rsdcvbtcqkC6YUyucnpNyc6UYSAVqFMbnL6zYkOFCGgViiTm5x+c6IdRQjoFcrkJqffnGhDEQKKhTK5yek3J1pRhIBmoUxucvrNiRYUIaBaKJObnH5zohlFCOgWyuQmp9+caEIRAsqFMrnJ6TcnBlGEgHahTG5y+s2JARQhoF4ok5ucfnOiH0UIIJTJTU6/OdFAEQIIZnKT029O1FGEAMKZ3OT0mxN9KEIAUTiTm5x+c6IXRQigVyiTm5x+cyKiCAE0hDK5yek3JyhCAP1Cmdzk9JsTFCGAfqFMbnL6zQmKEEC/UCY3Of3mVI8iBDAglMlNTr85taMIAQwKZXKT029O5ShCAE1Cmdzk9JtTN4oQQLNQJjc5/eZUjSIE0CKUyU1Ovzk1owgBtAplcpPTb07FKEIAbUKZ3OT0m1MvihBAu1AmNzn95lSLIgTQIZTJTU6/ObWiCAF0CmVyk9NvTqUoQgAxQpnc5PSbUyeKEECcUCY3Of3mVIkiBBArlMlNTr85NaIIAcQLZXKT029OhShCAAlCmdzk9JtTH4oQQJJQJjc5/eZUhyJEVfS8dOt5Jx7ytW02WnfNVVZada0NNt1h7++ddsk9bxedK2ihTG5y+s2pDUWICnjvltMmfXxMwlCYb519f3PvjKIjhiqUyU1OvzmVoQhjzPrOQjbn2tgtnvFzvPd2n5D9zB85foGl19hi0vfP/ef/qhPGxgd/O3ytYWKiMZv9+K7ZKY8wfeeJpqWHrfhHp+Wmfm0+03KLHjDdLd5ta4xIXm3o0ke5rdYhlMlNTr85daEIYxxpe7Kt0uPleHt4/v/AMl844c45lQgjmnLJTmOtoyy01w2ppsM50sLD7nFZbm9pub2d0r1ubOm57ndarlMok5ucfnOqQhF2mrWg9cn2dy8HtPr509HEHS56P/wwglt2tm/BugX2f9j9MOeJy+7lsNr7o6XVRjq9WadJy/3L8eV2CGVyk9NvTk0owk5/sz/X9vVywFH5/B9hzA7XpfiJtVRhTN4/faVUSda/0HVAPC+uuaLDajfIEa9zSfd5YbEhbzm+3E6hTG5y+s2pCEXYaT/7U20xL8M9p+6Za/lTnH8SK1WYZO8ct0DqIB/6teOlMyuISzr8KfQoOeDhLuGkH+FXcXutsUKZ3OT0m1MPirBDzxIOp9pkH0fMr3tqtQWOfy/gMEmmHSP9YcxsybOc/mwp/lWvdoX9YpvL8dZ1yPaEtNg3XV5pklAmNzn95lSDIuzwL5cz7WAfR8yze2q1hdyGfqnCJLhoqcxBVr3Z4XiXiMsdYr3WHIuLckdOs892nrTYJQ4v1BA7kMlNTr85taAIOxzicqIt7+OI+XZPrbbanaGGifWf9bwE+eJr1kf83xBpsU9br/WgTTaHi7D2ktZ6xX4tk1AmNzn95lSCIuwg/0GoWdZr03vl3T21YUfY/1GsVGFizD5JvOrS0oJ/sD7oqtJaIz+wXepXNtGOtH8/Pi4s9RH7pcxCmdzk9JtTB4qw3QNu55nDyEqUe/fUap98MsgwnZ5d22OQHd+xPOpB4lK32L6AXW2CbWj9frw7VFjqG9ZLSUKZ3OT0m1MFirDdUW6nmY9r8rrQPbWJV4cYpsPV83sNssIDdoe9RlzpR7avwOoXDqOtby5znbTU+bYryUKZ3OT0m1MDirDdJxxPsww/3fTrRvfUhpwSYJg2PUeKf6xzNMauJ6YYbmJWt5XlS3jdLpf1D5jiXZCes13JQiiTm5x+cypAEbZ5yvUsOzH7MbvSPbXaoeGFaTVj5xyCHGN16PWlZSZafqL0Cp+p5tpUWGhp24WshDK5yek3Z/VRhG1Ocj3J1s5+zC51j90nykoVpsW7G+cSZC+be3H/UFzmQbsX8X92oTaxfE/mzCssNMlyIdvjBTK5yek3Z+VRhG3WcT3HhryY+Zjd6h6rO5aUKkyzd9bIKchOFk14q7jKmXavQvzRsm7sTLvl7pcWOstuHWuhTG5y+s1ZdRRhq5fc/wj188wH7Vr31E4NLEyT95z/FcXaLvKH/GeOExexehUzkx6a2O52u3fll9I6j9mtYy+UyU1OvzkrjiJs9Qv3U2zjzAftXvcMk2/nXKowg6ZukGOSPeTjbyGtsYzVy7jDNtIJdm/LJGGZReyWcRHK5Can35zVRhG22sT9DBv+RtaDdq97ahOfCCrMgJ4dck0iP7xW/tvxCzav41TbRFvavS/LCcvsaLeMk1AmNzn95qw0irDFm8NTnGHnZD1qF7untqb0f4dShRlwWL5BhlwsBbhXXENcoteOtonG21zCE70mLXO6zSquQpnc5PSbs8oowhbnpjnBtsl61G52T+0HIYXp9/u8g4y+W0gwR/wk//42L8T+ySZ32Sz3Z2kVH3cA7BTK5Can35wVRhG2+Fya82tU1sfsdbV7ht0bUJiGx8VLVTJbTnpAlPi72VUtXshz9oFOtnljDhYWmejjWR8xQpnc5PSbs7oowmZT0t3P+Y8ZD9vV7qmtY/7od6nC1M1YrQtJpKs+xeszh70rv5KL7PNY/Z5hXR+LpBHK5Can35yVRRE2k587F+tLGQ/b3e6p/TacMHXyLa99uMAc4nFxgevlV7K/fZwJFj/MzZD+xzrJ4t1NJ5TJTU6/OauKImz25XRn13jrWyTH63L3LGp87GupwvS5e1hXkizwP3OMJaUFLP7gubpDnvvk5SZLa9whr5FWKJObnH5zVhRF2GSGdL+qJH/Ndtwud0/NeMfrUoXpNbsbvxjttas5hzioNhL/h57qclHyaeJy0U+EJcblOfVCmdzk9JuzmijCJlelPbm+lu243e6ehaeGEqaX9UfvmqV6SsU/jDnOl3YfK46Yf7ik2U5aLYq2F5bYVF4ig1AmNzn95qwkirDJ19OeWwtYfegrUbe7p/arUMLM9dZEl8UW3f6EP9710juzomlvPHPTOYdv5HS56erGK3deEvcXP/FwnEuaBeTriBYTlrB+hkU6oUxucvrNWUUU4aDZC6U+t8w/S0jE7llhZaPlF3O82nXlUMJE1o9r6LXKcY+37z3r9gPtP7pX+4MxyUel3cWbp25lH2Wuh6TlnpFWuFlaIaNQJjc5/easIIpw0E3pTy2rD1MnkrpHfmJRzyv/PGWH8fZ5DcVdqjBzfw6zvUv10O0TfiDruUL6kMGAFYwTYj9p9+2lN0b8UH6LM4TlxNsMjPpAWiGrUCY3Of3mrB6KcNAB6c+sJS0fyxpP6h6rz1ZH0fQrN7PNu3sgYaLo25aLbPqoYZG/rWS5ynmmKJdJe0t3uH7UMkXDTsJyYjOvLy2QXSiTm5x+c1YORThoqQxnVqbr1D11z1z3W7bPhOQPfJQqTPSO3U+WCwg3+px10kirdT5hWuStodLuT5pT/NYqw4CFzatF0arCAkdIC3gQyuQmp9+cVUMRDrgry4l1aJYj++ueKLrU7tdvV4QRJjrZaoG1/itGuWsZq5VuNK0hPhn4XHOGPawiDPqPebn3pc9XujzmKrVQJjc5/easGIpwQKYHHHw4y5F9dk/04po2eb8RRpg5S9vs/+UZFlHeXNtmqa1NS4jX7XzdHGFFmwRNhOtp/ybsPky6faofoUxucvrNWS0U4QDxokAj8RI/A6/dE03dxiLu0mGEudFi79oedneWfv+zFmsNe8WwwvXS3isaA7zl+uHGr5hf0DHC7mtavS3ZhTK5yek3Z6VQhP0eznZaHZ3h0H67J5ph87e5xF+7lSrMrhY7T7K9UGmazc+Epo9ATBX/0Gi8S5vz/RoWN7+eLYXdv2v5vmQWyuQmp9+cVUIR9pP+/VrwyQyH9tw90ZRV5LyJN7suU5gp88j7rm9/o9dXLf5OaHyY0obS3oa/dkbREfLR2xgvvumZL0sYr0KZ3OT0m7NCKMJ+0iV4kqfTH9p390SPywWydwhhLhX3rC0q3Cq7xf0W144+Ydhf/Jelg01H/6x88DZnm5aTfoUx5E2HdyajUCY3Of3mrA6KsOHZrCfVT9If23v3RKeJcdcIIczu4p61q52inCAv+FPD7rdLO3/asPNs96cLG28Dfpaw88ed3pmMQpnc5PSbszIowoZTsp5T66Y/tv/umb2yFHdU0hUmJQrTs6i0o+vtzuesJa64uWH3WdKnGkca7uVyj3joDsuYXsvuws77ub01GYUyucnpN2dVUIQN6wlnzHLSvZ+HvJz62P67J7pQ/L/As+UPc5+431jXN/02cclRUwy7izcLvSV53w66qQsAACAASURBVNPFQ3d6zpDlI8K+wj0GfAtlcpPTb86KoAjrXpXuGvL4sdIp9cvUB8+he2aLt5pO+uh4icL8VNqt9n3nLJ8X1zTd+lT8vcHxyfumeerz75KXe0PaN/2/mKUTyuQmp9+c1UAR1p0pnC6rRA9IZ1T6h7/l0D3Rd6S4SZ/WLlEYsTrGuF8Pcqe0Zu0Ew973Sztvlbyv1b0B2uyRvNxfhF1XcH5rsgplcpPTb85KoAjrNhfOlsOiaFlhk+FvpT14Ht3zT+n8T/rgY4nCLCvtluaByOK9brY17NwjPalrYuKHGuXHGcZYPjmKdCMkQ4fmJZTJTU6/OauAIuzz9gjhZLnN4uEUht9jmeXRPTOkpwImPTmqPGFeF3aq1e5MkUW88/Wipr2/KO39YNKel4ivJs6LiUk+I+xpfJBGTkKZ3OT0m7MCKMI+5wunygJzougG6Xwy/ShhlEf3ROsIi36p9GHE50MulSbKG9Ktqmumn+x/Le18ZtKets+TanVh0nKzxgp7PpPmzckqlMlNTr85w0cR9tlOOFMmzd1m5rzCRmNM1xua5NI9uwiL/r/ShxFLJ90HBNaXljU9UuspaeddkvaUP7gRZ6+k5aRnpSyZ6r3JLJTJTU6/OYNHEfaaKj0Gve9S9J2k0+nSlIfPpXu+Jyy6cenDHCTsVPtrmijRj6Rljb/ilu7StkzCfh9Iv3yPl3gbb+mK2p1TvTfZhTK5yek3Z+gowl7Ss8eHv9271QXS2ZR2+OTSPScKi65X+jDiJx1eSxNFfHqR+TMZ4jMFX4jf71ZpvwSvJuSQ/lgpPMIpP6FMbnL6zRk4irCX9Ju7Dfu2elP669IEm+fixcile84QFv1U6cNI13cmP73J6B3paUjG6y3FmwMkfI79x9J+CS5JyLGksN+j6d4cD0KZ3OT0mzNsFOFcM6W7xjSGv3ShXu2adMfPpXukO3yuX/ow0gfvPpcmSSR/KmMb086vCDsnXY0rf5A/3jfjl3tB2G2hlO+ND6FMbnL6zRk0inCua6VzpPG8vJOl7ZIftW6US/ccJyya9Pn/8oRJ+wEQifTvM0k/K9etJOyd8Bwn6QOISRJunX2xsNv2Kd8bL0KZ3OT0mzNkFOFcewpnSP/Hmh+XTqWF7J6V3i6X7vmWsGjSzz2lCfOesE/tpDRJ5pokrLuscW/p46RD343b6wnpxSQZ8kZsCukNNT1DI3+hTG5y+s0ZMIpw7mm2iHCCHNi/pXSfY9M9lw1y6Z6tpbO+7GHEX0ImfsZOcKiwrvnXildIsa6P2+s8aa9Ef45NIf399L6U740noUxucvrNGS6K0OKCvoFbQh8sbXmg6TiJcumeZYVFv132MM8J+6R+Arv0eN3xxr3fkS6Z+kHcXntJLyZR7Ck1TfgwxoR0v5rwJ5TJTU6/OYNFEcr3/Bg/cDHoLdKJlO5Cxjy650UpatIvFksTRvxFdOyPXhZ+Iqw70ry79Mn4jeJ2+rj0YhLF/s3xZmEnw72/uySUyU1OvzlDRRHKn5EevPBg9gLSiXR3mgB5dM85UtILyh7mQWmnW1Mk6fULaeHEG2f3OVzYe2zMLHlXespXsqFvx2SQbgrw45RvjUehTG5y+s0ZKIpQfnL4OYPbStdZ1A5PkyCP7tlMSnpb2cP8W9rpnymS9JIeuVUzzwLxA/l3de5znbSPQdz9c7YR9pmc8q3xKZTJTU6/OcNEEUZHCGfGkKabe4iPEEi8JZZJDt3ztHhr6XfKHqasRfiB9LGOUzv3OVI6pMHBMRkWNO8ydmbKt8arUCY3Of3mDBJFGH1MODHWatr23ZHSaZTmjh45dM/eUs7EJzeUJkxZizDaWNg95jN8m5q2P9l8BsZ8rPExIUHSfWS7LJTJTU6/OUNEEUpDpXZM89biL/mOSxHBf/c8NFzKmXg5RWnClLYIjxd2X6RjjzmmB5eMn23+i9+w9zrWk/7melTKd8a3UCY3Of3mDBBFKI212r3NW58ubb16igjeu2f2euLJ/qPShyltEd4h7f9k+x73m7beWPr8zrUdCb4hBPhHynfGu1AmNzn95gwPRbiGcFIs3rL1c+JJ9Jx7BO/dI13YWDNcTlGaMKUtwtkThP3Pbd/jl6atj4imm9/zwzoSCLd5Gzkt5TvjXyiTm5x+cwZHfRH+Vzon9mzd/hPS9jGXSkh8d8/vpecr1GrjEi+nKE2Y0hZh9Dlh/6+372C82PgvUWT+mfnT7cu9Lbyl66Z8Y/IQyuQmp9+coVFfhNIDTmtXtm4vPWK2toF7Bs/dc6n4N7labdvyhylvEUrnTMelw8uZtn5duunbiKlty10jHL/zR8gChTK5yek3Z2DUF6H0KILRbVPoTukMGur+uFi/3XOqzYe3Lyp/mPIW4UPSAv9r3f4107a9d3S/yrzcjW3H/75w+JRPA8tJKJObnH5zhkV7Eb4ufcRty7YdehaVzqBfO4fw2T1vfsnmLB/zfvnDlLcII+ku7W13Qf2zadtdIvF3nd9vO7zw+Y1hsc+/KE4ok5ucfnMGRXsRniWdDme07yFdsVfbwjmEv+6Zc/Zidid5AGFKXIRfERZo+wy88V7tfSeY+Vakn2ldbvY85qOnuXA5V6FMbnL6zRkS7UW4pXQ2dFwEeqW0x4ike7Yk8tU9U38t3RygX9L91coUpsRF+FthgbbLW9Y1bXtP7xb7GJcb9UHLcvcJR096rkhxQpnc5PSbMyDKi1C8U0znA8KnjZHOn9+7ppC652iLNXoeP29H4SeFQauFEKbERfissMDIluaaYXpLx/Qd7ELzeje3HP0M4ejxTzAsVCiTm5x+c4ZDeREKAyj2Ajzphsdxt9gyk7pn/v0PMtp/j+1Wlz7b1uL8EMKUuAjNl4HW2h7QPNm05fp9mzxvXq71Xz52Nm88pO1SnVIIZXKT02/OYCgvwh2kMyHm13binxXHun6eWeoe31YyPba1NGHKXIR7Cisc37yx8fmHh9S3Wcq4XOu9Q5c1H3ullG9LvkKZ3OT0mzMUuotw2jjhPFhgdudOL4ufEHf93VS3u+fyIMKUuQgvFlZouXnq9qYtL6tvY/4pb8yMpuVeEY69T8q3JWehTG5y+s0ZCN1FeLl0GuwSt9enpL0mOcbocvesF0aYMhfh68K/DE1sfrav8drZl+rbGG/C1vqLiT8J6ZM/IlqsUCY3Of3mDIPuItxVOgv+ELfXMdJeEx0fB9fd7hn5SBhhylyE4p32Hhzc9BnTdks3NnrQvFzzr1q/Kxz6xZRvS+5Cmdzk9JszCKqLcNZ8wjkw/O243YzPEuhzvVuO7naP8Iye0oQpdRF+W1jil4Ob/t603RcbG/WYT8XNmw69jvnIy6V8V7oglMlNTr85Q6C6CG+QToEN4/dbWtpvb7ccXe2e1WYEEqbURfhXYYmm36nvZ9pu4BbtWxuXm2cw0nThEz+7p3xXuiGUyU1OvzkDoLoIzR9jriV+ePyb0n6Lmi7L7NTN7pnwdChhSl2E7wn3El9mcNNVTdsNPIDqBPN6dw4sd5sQ/pyU70pXzBH/GOHFnnIScnYzZ/lpLsIe8Q5gj8bveJ145rjN6G52j/GK0VKFKXURRp8W1nihf8P3TXezHTm9f7N/mpc7aeDAJwkHfirlu9IdXZrcz5CzXDlLT3MR3i79z5/055YZ46U9v+sUpIvdc3w4YcpdhNITIAYus/qbaau1B9YTHs679cCG25mP2/oc6dIJZXCT02/O0tNchAdJ//N/K2lP8XP4H3IK0r3uOSCgMOUuwpuENfbv39B4jfGBgwuub1xuwsAv24UnXxhup14Cofwqj5x+c5af5iKU7pNVuyFpz9+Jp859LkG61j2TLP52WZow5S7C6cItZ1ft39B4W/eLBxc8zLzevY3NnhKy/zIqsW5d3BFzGwxyFpgzAIqLUBy04xMvaXxDeophxyPkjLrVPfvaXMNTmjDlLsJoM/MaQxsPBeyZaNqq6dkmwsN5+y8vPV/I/nDKN6UbQpnb5PSbMwSKi/AH0glguHm2+fdYNccbPnape44IK0zJi/DHwiLX1Td72LTNok3rvT3UuNy2jc2EK50X7GnPWR6hzG1y+s0ZBMVFuLJ0BpydvK906V6t9phDkq50z9gLAwtT8iK8W1jkB/XNjLdo3655wVWMy83faDjhljbbtccsj1DmNjn95gyD3iJ8QjoDhryavPN/xPPnBIco3eieFR6Uc5QrTMmLcI5wW6KN6pvtbtrmxOYF9zWv90DfRu+Zf24c/IB+6YQyt8npN2cg9Bah9Kut2qdMe384095t8u+eIQdMCS5MyYsw+oJ5kbH1VT5i2qblsYUXmdc7vW8j6WZI96R8T3IXytwmp9+codBbhGtJ54DxUezSnY9rtefto+TePSveGmCYshfhz4VV7urd6A3TFsOnNq/3gnm5Hfs2Osq80bxlnVuhzG1y+s0ZDLVF+KL4VMF7TbvfLJ5DP7PPknP3LPxLl3sFliZM2YvwUWGVvt9S/sW0xWqtC5pvYbtw3zabm4+5Zcq3JG+hzG1y+s0ZDrVFeLp0EixuvP5u9vzS/hvaZ8m1exY57n2nN6Y0YcpehNHi5lX6Ljo2fjpwv9b1zA/n7bvf35wJ5m1+lPItyVkoc5ucfnMGRG0RbiSdBd8w77+LtP+w/1lnybF7Vj5runz8coYpfRFOMq+ySO82nzFtcb5TrjMj8bGFLQ/wLY9Q5jY5/eYMidYilD8Sf4V5gYvF8+i31mHy6p4F979TPnhpw5S+CM8VlnkyimaNNW3wROt6D5mX67152q/Mm4wRHrFVjFDmNjn95gyK1iI8WzoNRglXNr47QlphK+swOXXPnjPTvDOlCVP6InxeWObcKLrL9P0F29YTHs672NxNhFtLfjblO5KrUOY2Of3mDIvWIjQ/B7VmcdnBJtIKI9+1DZNT95yZ6p0pTZjSF6H0GZqvR9FPTd/fun29bczrzf0BcgXzFkemfEfyFMrcJqffnIFRWoTvieP+DGmJn4nn0kW2aXLqnlVS3W6rNGHKX4TC7c4+GkVfNH3/2Pb1hI+2/iZ6XQj+t5TvSI5Cmdvk9JszNEqLUP4L37PSEs+IS+xkm0bqnlX+9Nc4J0m/nb0yzVtTmjDlL8JLhXX+Fy1p+vaN7esJD5+fFF1h3mDE1LiUhQplbpPTb87gKC1C47+p91pZXuPj0hrzfGCZRuqeHyfsd6Sw31q2b0cpw5S/CN8QPot6hfEz8kM7fnU+Y7RxuaWiQ83HWyflG5KfUOY2Of3mDI/OIpwuPmL+UHmRw8XzyfaHIKl7Tk7Y73Xz4Iz5mSOkMOUvwmg18zpbfsf03Y93rreBeb3jhCdo/l/KNyQ3ocxtcvrNGSCdRWi830cfiyH7L3GR3SzjpO2eaC9hxzRXEZYmTABFeLC0kknMB1Xlf7cyuirlG5KXUOY2Of3mDJHOItxdOhfmtzgX5iwirmI5UVN3z+PSfeJut31HShgmgCK8RlrJJOYpX1dnWa829J2Ub0hOQpnb5PSbM0gqi3D2AtLJsIvNMnuI55TlVXypuyf6nLCn/WcZyxcmgCKcIn6Y1OCRzvXeER6yZLZqyvcjJ6HMbXL6zRkmlUX4d/FssPrkg3ANX63jZpJJ0nfPLVKC++wSlDFMAEUYrS8tlWxC3OdJhMfumn0r5fuRj1DmNjn95gyUyiL8pnQ2DH/LZpmp0uUhwo27B6TvnuhTwq47WgUoZZgQivCH0lLJNotbb7/069Vqf0r5fuQilLlNTr85Q6WxCHuWkE6Hz9gtJN6epjbZap0M3SN9IHLof+xeSgnDhFCEt0pLJYu9C4zwcF6z11O+H3kIZW6T02/OYGksQvlyz5PsFhJugTzXwVbrZOie2csK++5q91JKGCaEIpw5Tlor0TVx6wkP5zVaMeXbkYdQ5jY5/eYMl8YiPEQ8IR61W+gl8eG+y1utk6F7otOEfYc/a/dayhcmhCKMtpTWSjLkzdj1lkm7Xq22V8q3IwehzG1y+s0ZMI1FKNy5uFZbznalNcRz6wGbZbJ0z/sThZ33tX0xZQsjPXsvvyJ0uC3qydJaST4av574mMtkv0/5dvgXytwmp9+cIVNYhOKArR1gu9TR4lI/tFkmS/dE/yfsPOpl21dTsjCPC2vVbnF7YQN+Iaw70mGt+6SQSXaLX0/+bXui51O+Hd6FMrfJ6Tdn0BQW4VHiKXG97VLyGFzFZplM3fOi9Fm2g2xfTcnCPCcsVbvO7YUNOElYd7zDWj3iR1ITJDyW6uGUy9Vqy6Z8N7wLZW6T02/OsCksQvGzWuPsn/NtfLpAnyctVsnUPdFXpZfzhvXLKVWYV4Slapc7va5B0s/xC7kstqOUMsG/45frmT/leu5XReUklLlNTr85A6evCJ8Wz4kF7S+W+Iy42IkWq2TrnvulCD+wfjmlCvOutNQFTq9rkHSx1DIui4l/cIw3LmnuCA/nTfbblO+GZ6HMbXL6zRk6fUVocXnDYitb+pC8ls2jcbJ1T7SpsPvEjuf9hBEm7QOhJF8R1l3TZTHxL5nxEu9AfmK69fqeX18CocxtcvrNGTx9RfjprpxZA4a8JEfK2D3XShlOcHl/yhNG+r2z5Q3sOqwrrOt2T9SlpBcc67Ck5W5Ptdzcf3lL+Wb4FcrcJqffnOFTV4Qvi5/98+wMOVPG7hEfEbzwNIc3qDxhVhdWSnFH8T7SjYV2d1ot3ai6Imk54eG8ib6Y8s3wKpS5TU6/OStAXRFK1857t7GcKWv3nCNl+JnDG1SeMNId7BZ3eFVNXpMCJv60Fut8ablYryauJ//ZOZbFv2/lLpS5TU6/OatAXRFu0pVzq8lw+TrJrN0zYzFhgSXtr4MtUZhvCQvVLH7rHOOv0rJul528JC0X50PJ6x2RZr1a7aFU74VXocxtcvrNWQnaivCt4V05uZqdK4bK2j3R8VKG39i/Q+UJc4a00GX2r6rJ96Rlb3Vbb0VpvRhfSV4u3cN+53e4G05OQpnb5PSbsxq0FeF5XTm5WnxODJW5e96S7v28vP3ZXp4w1wvr1PawflHNPiktm/xry1jiQ71inJ68XLqH826b6q3wKZS5TU6/OStCWxF+vitnV4vR70uhMndPtL8U4kLrd6g8YZ6X1ll4jvWrGvSstOpExwX/LC0Y4y7DemJRxzklxTvhVShzm5x+c1aFsiKckvKavEz+KKXK3j1PSz9GrGz9q7MShVlEWKf2D9sX1UT8oN6mjgu+5f4j3OiZhvXS/IRZuzvFO+FTKHObnH5zVoayIrykK6dXmy9JqbJ3T7SDFML6fmQlCiP++O72yPs+c5aVFv2e65JrSit2WNe03B+cl6vVxhc80EKZ2+T0m7M6lBWhdFORXIyfLqTy0D3iw4atb5dSojDiZTfDX7R9VQOukNas/cV1yUPFJdsZbz3+ovNytdoWzu+DV6HMbXL6zVkhuopwxrxdOcHaXSXE8tA94u1SrB+pUaIwN0vLuN9cZs6q0pJDXnddU7yop8OlxvWWdV6vdrxrZq9Cmdvk9JuzSnQV4dVdOcE6SFc3+uge8ZKNz1i+RyUKM3O8tM7wxy1fVb/zpBVraziuGEXTRoqLtnnBuN4k1+XSP6PYi1DmNjn95qwUXUX49a6cYR0WFE45H90zZwUpheWwLFOYbaVlXG+z9tbi4orfd1ux14bioq2WNC/n/nDe0dIv3/MUytwmp9+c1aKqCGcv1JVTrJNwdaOP7pHvHbel3ZtUpjAWlXCW3atq+JK84O1OC/Y5Rl61hXCNzyOOy9VqG7pn9iaUuU1OvzkrRlUR3tSVUyzG/uZcXrpnqvis9Hut3qQyhXlZ/mTCPI9Zvaq6c8XlaoumGBCuT4z4iXk596feuz1x0qtQ5jY5/easGlVFKN68Mi9Lmj8456V7ou9LKba3WqZUYaSnG861/P+sVup1k8Uf875tvdqgWeLfMlvdJqz3ObflarUbU4T2I5S5TU6/OStHVREu3ZWTLM6dxlx+uudVaZkhj9gsU6ow5wmr9Fp3qlWiKHpoosVqqT6ZLj0no9WID4TlTnJarlYbPiVNaB9Cmdvk9JuzejQV4V1dOcliHWoM5qd75EuBJtmsUqow70v3Le213jtWie6Y32KtFe1eXZtTLVYe9ClpuclOy9Vqa6cK7UEoc5ucfnNWkKYiPKwrZ1msDxuDeeqeR6RnDg97xmKVUoWJ9hVW6bOq+eMIdVfNY7OUy5MbBz1gs/SAA6TlZoxxWq92SKrQ2YUyt8npN2cVaSrCj3blNItnfFycp+6JtpJS7G2xSKnCRI9JfdpnwWuldWYdZrXQhPcsX12rHqfLkS8S13N8OO9fU4XOLJS5TU6/OStJURG6X5Xu0TGmZL665x9SilEWj7ItVRiLPu0z5JtvGVe5ey2rZWrftXxx7Sw+ljFI/lFYfGRii6Fvp0ydTShzm5x+c1aToiI8tivnWYJVTcl8dU+0uhTjO/IapQoTRbdKqzQsdGbyh8qf29PyAREj/2v74tqcZZmy18Lyctc6LFerfTJl6GxCmdvk9JuzohQV4WpdOdGSmH4M8NY9F0opxsqfNShVmLm2lJbpt8ixsbfg7rnty8NslxA+75nsKdsjzPV5ebl3nZ7sJP7NMQ+hzG1y+s1ZVXqKUHwga75MH6L21j2zlpJiyM8YKlWYue6z+uNenyHrn3bPrJad37rmO2KKQWNfsX1tHZaxP8oJFsuJtwZvZr6Fdz5Cmdvk9JuzsvQU4SniWTL+D/9M6XLxEbLGR9B5657oJ1KMCeJHDUoVpteXpWVajFt30g9++btLr/zD2aceuO2K9iXa63Drl9ZhD/uj3GSx3P4usV9NHzutUOY2Of3mrC49Rbi+eJqkuN1yP/HemrWhhp82/HXPu+JzpsQH9pQqTK+XuvXsrKUyfC5d/D3wgGE2R7nYIfZH06dOK5S5TU6/OStMTRG+Kv/ZxXz7FyOLh6memby3v+6JDpJiLCjdh6VUYfr8TFrGk8vtX1mHV6yPYrxsqt9LDrH3zBA7nVDmNjn95qwyNUUoP8hgEfMNQc3ESyRrmyXv7LF7nh8u5ThNWKFUYfrMWVNaxout7V9YjJVtD7OP1XIfss99QabcKYQyt8npN2elqSnCzcUT5WtZlj9aXH5E8ifdPHZPtLOUY4kZ5gVKFabu0bHSOh7MH3vNqTXrG7qfZ7XcV+2Dp/3IR1qhzG1y+s1ZbVqK8O0R4plyWZb1/y2fib9L3Nln99wr5vi1eYFShWn4tbhOdpn+54+iK22PY/fYKPtXvEy23M5Cmdvk9Juz4rQU4QXimTIy3d21+snXz2+XuK/P7ok2knIsZ/6/RKnC9NteWiezrH9pe8fyw4rz2/0C/lHr4F/NGNxRKHObnH5zVp2WIvyCeKpsmu0A8gXvYxKvDPHaPVeJQcx/VCpVmH7vWf8JLqU1p7m8rDhr2x3o/9mt1rOgbfLfZA3uJJS5TU6/OStPSRFOlf/K9NNsR7hRPhv/lLSv1+7p+ZiUYyXjDyWlCjPgGetiSGVxq/ueGh1hd6SjLZf7vG30xzMndxDK3Can35zVp6QIL5NPlqeyHWHmBPEIOyft67V7ot+IQYx/DitVmEG3SrmyGJPqcbyt/m53qOstl7N9OO+i2ZPbC2Vuk9NvTgWUFOEu4smS+WPJ8gMIJiRdIum3e6aLt7lZ3bR7qcI0+at8uVNaI8WnOFn4YLTNoYbYPUQ4iv5lmX0nD9FthTK3yek3pwY6inDmRPFsOSjrMS6Sz8ikeeu3e6JjUgcpXZhmf7K+d7aj4Vk+ST9oY5tjrWS72kzLh/P+3Et2K6HMbXL6zamCjiK8Tj5dbsp6jHfkn1iSrkz03D1viH8QXd+wd6nCtPjjSGmpVEZc7PaKkhxvc7A9rJfb0C79A37CWwhlbpPTb04ddBThXuLpMmGWvIpgE/EgC8+J39Nz90T7ikluSd65VGFa3TheXMvdPNc5vqAkd9gczf4az+9bpZ8vy+2QnIQyt8npN6cSKopwjvxwiC9mP4rFLTETRr7v7nlSvK/q5sk7lypMm3vl/yFdLeThOpm62fLlUrXaQ9bLWfwWY67P+UovCWVuk9NvTi1UFKHFU87Pz34UiwceHhi/p+/uibYTkySP/1KFaffip8XF3KzxnOvLSWbxiYd5E34nEOM9qz+JOv+vkVIoc5ucfnOqoaIIvy2eMEOtHpYu+IR4mKXjd/TePbeJSbp0m5usYTrM/Ka4motvTHd9NQYWvxLYxGE5q4fzZnhiiotQ5jY5/ebUQ0URLiueMabH5lqz+KvOPbE7eu+eaB0pyJCHk3YtVZgYf1pIWs7aRA+/B2jysHxEl0deHmDxCubJ/qdtG6HMbXL6zamIhiKUb/1s94RYyd3ycY6I3dF/91wqJunSp/szhonzuq8bj26V/XYyrRYVD3mVw2p/tHgJhmd7eRTK3Can35yaaCjC78nnjJeL0HuWEI+zYuyO/rtn9nJSkmFJd9IpVZh4l8p3OJctmvw0kLTEp07V3nBY7WWLF3Gs99cQI5S5TU6/OVXRUITi/S6T/nbnah/57Hw0bj//3ROdLib5RsKepQqTYNrRWZ9QOOqw991fh+Rs6agfdlpO/PcHh0+eZBDK3Can35y6KCjCx+STZl8/R7pGPtJxcfvl0D1T5pOSjHwhfs9ShUn04n5Z7j064mvPuL8K2XPScd0embSr+DpG+bzWJ0Eoc5ucfnMqo6AIT5DPGpc/3RhMn0c80hpx++XQPdHhYpRufZYjSxiDFw+wurlnjFH7ePzMRAvpZ7hfOK12lvhKNsjpdTQJZW6T029ObRQUofzxrnGZH0bXsJN4qKFTYnaTroM8K0WUl8X7kY2Li1KyMEZvnry8tGyM5U54LcUrsCP9btztT9GPi6/lyJxex6BQ5jY5/eZUR0ERyk+ecP9xJMHNQ6RDDY/r3K+Z9xmT6vd448kqVgAADPVJREFUh4kv++XY/UoVRtBz3aR5xZWbzbvL9Xnek+xB8/1mV3FcTrqN95j/5vIqmoQyt8npN6c+Corw+S3GGc+a+fb295eW85Yz3lBs6DJnx+31zlcN43zox9I9JGjOUUuZannIYj+K369UYWTTL99lYdNb3mTR3f6S99/Url4t+TfL4zZ5wnG1V7c1/a599No35/IamoQyt8npN6dCCooQFddz/0+2kW5CusQXTn+k6JzBCWVuk9NvTo0oQlTCC5f/8CtrLdA5FYYsvsFuP7r29aLjhSiUuU1OvzlVoghRIVNfePj2a/588e/PPfu8Cy+5/IY7//PyjKIjBSuUuU1Ovzl1oggBdAplbpPTb06lKEIAHUKZ2+T0m1MrihBAu1DmNjn95lSLIgTQJpS5TU6/OfWiCAG0CmVuk9NvTsUoQgAtQpnb5PSbUzOKEECzUOY2Of3mVI0iBNAklLlNTr85daMIAQwKZW6T029O5ShCAANCmdvk9JtTO4oQQL9Q5jY5/eZUjyIE0BDK3Can35ygCAHUhTK3yek3JyhCAHWhzG1y+s0JihBAXShzm5x+cyKiCAH0CWVuk9NvTvSiCAGEM7fJ6Tcn+lCEAIKZ2+T0mxN1FCGAUOY2Of3mRANFCKgXytwmp9+c6EcRAtqFMrfJ6TcnBlCEgHKhzG1y+s2JQRQhoFsoc5ucfnOiCUUIqBbK3Can35xoRhECmoUyt8npNydaUISAYqHMbXL6zYlWFCGgVyhzm5x+c6INRQioFcrcJqffnGhHEQJahTK3yek3JzpQhIBSocxtcvrNiU4UIaBTKHObnH5zIgZFCKgUytwmp9+ciEMRAhqFMrfJ6TcnYlGEgEKhzG1y+s2JeBQhoE8oc5ucfnMiAUUIqBPK3Can35xIQhEC2oQyt8npNycSUYSAMqHMbXL6zYlkFCGgSyhzm5x+c8KAIgRUCWVuk9NvTphQhIAmocxtcvrNCSOKEFAklLlNTr85YUYRAnqEMrfJ6TcnBBQhoEYoc5ucfnNCQhECWoQyt8npNydEFCGgRChzm5x+c0JGEQI6hDK3yek3JyxQhIAKocxtcvrNCRsUIaBBKHObnH5zwgpFCCgQytwmp9+csEMRAtUXytwmp9+csEQRApUXytwmp9+csEURAlUXytwmp9+csEYRAhUXytwmp9+csEcRAtUWytwmp9+ccEARApUWytwmp9+ccEERApW2Z1fm9q5zyFmunHBBEQJV9kwgc5ucfnPCCUUIVNnkQOY2Of3mhBOKEKiybgxuH3ObnH5zwglFCFRZFwa3l+s6yOk3J5xQhECV5T+4/cxtcvrNCScUIVBluQ9uT3ObnH5zwglFCFRZ3oPb19wmp9+ccEIRAlWW8+D2NrfJ6TcnnFCEQJXlO7j9zW1y+s0JJxQhUGW5Dm6Pc5ucfnPCCUUIVFmeg9vn3CYnPVggihCoshwHt9e5TU56sEAUIVBl+Q1uv3ObnPRggShCoMpyG9ye5zY56cECUYRAleU1uH3PbXL6zQknFCFQZTkNbu9zm5woEEUIVFk+g9v/3CYnCkQRAlWWy+DOYW6TEwWiCIEqy2Nw5zG3yYkCUYRAleUwuHOZ2+REgShCoMr8D+585jY5USCKEKgy74M7p7lNThSIIgSqzPfgzmtukxMFogiBKvM8uHOb2+REgShCoMr8Du785jY5USCKEKgyr4M7x7lNThSIIgSqzOfgznNukxMFogiBKvM4uHOd2+REgShCoMr8De585zY5USCKEKgyb4M757lNThSIIgSqzNfgzntukxMFogiBKvM0uHOf2+REgShCoMr8DO785zY5USCKEKgyL4O7C3ObnCgQRQhUmY/B3Y25TU4UiCIEqszD4O7K3CYnCkQRAlWWfXB3Z26TEwWiCIEqyzy4uzS3yYkCUYRAlWUd3N2a2+REgShCoMoyDu6uzW1yokAUIVBl2QZ39+Y2OVEgihCoskyDu4tzm5woEEUIVFmWwd3NuU1OFIgiBKosw+Du6twmJwpEEQJVln5wd3dukxMFogiBKks9uLs8t8mJAlGEQJWlHdzdntvkRIEoQqDKUg7urs9tcqJAFCFQZekGd/fnNjlRIIoQqLJUg7uAuU1OFIgiBKoszeAuYm6TEwWiCIEqSzG4C5nb5ESBKEKgytwHdzFzm5woEEUIVJnz4C5obpMTBaIIgSpzHdxFzW1yokAUIVBljoO7sLlNThSIIgSqzG1wFze3yYkCUYRAlTkN7gLnNjlRIIoQqDKXwV3k3CYnCkQRAlXmMLgLndvkRIEoQqDK7Ad3sXObnCgQRQhUmfXgLnhukxMFogiBKrMd3EXPbXKiQBQhUGWWg7vwuU1OFIgiBKrMbnAXP7fJiQJRhECVWQ3uEsxtcqJAFCFQZTaDuwxzm5woEEUIVJnF4C7F3CYnCkQRAlUmD+5yzG1yokAUIVBl4uAuydwmJwpEEQJVJg3ussxtcqJAFCFQZcLgLs3cJicKRBECVWYe3OWZ2+REgShCoMqMg7tEc5ucKBBFCFSZaXCXaW6TEwWiCIEqMwzuUs1tcqJAFCFQZcmDu1xzm5woEEUIVFni4C7Z3CYnCkQRAlWWNLjLNrfJiQJRhECVJQzu0s1tcqJAFCFQZfGDu3xzm5woEEUIVFns4C7h3CYnCkQRAlUWN7jLOLfJiQJRhECVxQzuUs5tcqJAFCFQZZ2Du5xzm5woEEUIVFnH4C7p3CYnCkQRAlXWPrjLOrfJiQJRhECVTQ5kbpMTBaIIgSqbHMjcJicKRBECVTY5kLlNThSIIgSqbHIgc5ucKBBFCFRZ0+DedU7RYQzIiQJRhECVTQ7k5xdyokAUIVBlkwOZ2+REgShCoMomBzK3yYkCUYRAlU0O5O9Z5ESBKEKgyiYH8vMLOVEgihCosmcC+fmFnCgQRQhU2rdqtX1CmNvkRHEoQqDann666AR2yInCUIQAANUoQgCAahQhAEA1ihAAoBpFCABQjSIEAKhGEQIAVKMIAQCqUYQAANUoQgCAahQhAEA1ihAAoBpFCABQjSIEAKhGEQIAVKMIAQCqUYQAANUoQgCAahQhAEA1ihAAoBpFCABQjSIEAKhGEQIAVKMIAQCqUYQAANUoQgCAahQhAEA1ihAAoBpFCABQjSIEAKhGEQIAVKMIAQCqUYQAANUoQgCAahQhAEA1ihAAoBpFCABQjSIEAKhGEQIAVKMIAQCqUYQAANUoQgCAahQhAEA1ihAAoBpFCABQjSIEAKhGEQIAVKMIAQCqUYQAANUoQgCAahQhAEA1ihAAoBpFCABQjSIEAKhGEQIAVKMIAQCqUYQAANUoQgCAahQhAEA1ihAAoBpFCABQjSIEAKhGEQIAVKMIAQCqUYQAANUoQgCAahQhAEA1ihAAoBpFCABQjSIEAKhGEQIAVKMIAQCqUYQAANUoQgCAahQhAEA1ihAAoBpFCABQjSIEAKhGEQIAVKMIAQCqUYQAANUoQgCAahQhAEA1ihAAoBpFCABQjSIEAKhGEQIAVKMIAQCqUYQAANUoQgCAahQhAEA1ihAAoBpFCABQjSIEAKhGEQIAVKMIAQCqUYQAANUoQgCAahQhAEA1ihAAoBpFCABQjSIEAKhGEQIAVKMIAQCqUYQAANUoQgCAahQhAEA1ihAAoBpFCABQjSIEAKhGEQIAVKMIAQCqUYQAANUoQgCAahQhAEA1ihAAoBpFCABQjSIEAKhGEQIAVKMIAQCqUYQAANUoQgCAahQhAEA1ihAAoBpFCABQjSIEAKhGEQIAVKMIAQCqUYQAANUoQgCAahQhAEA1ihAAoBpFCABQjSIEAKhGEQIAVKMIAQCqUYQAANUoQgCAahQhAEA1ihAAoBpFCABQjSIEAKhGEQIAVKMIAQCqUYQAANUoQgCAahQhAEA1ihAAoBpFCABQjSIEAKhGEQIAVKMIAQCqUYQAANUoQgCAahQhAEA1ihAAoBpFCABQjSIEAKhGEQIAVKMIAQCqUYQAANUoQgCAahQhAEA1ihAAoBpFCABQjSIEAKhGEQIAVKMIAQCqUYQAANUoQgCAahQhAEA1ihAAoBpFCABQjSIEAKhGEQIAVKMIAQCqUYQAANUoQgCAahQhAEA1ihAAoBpFCABQjSIEAKhGEQIAVKMIAQCqUYQAANUoQgCAahQhAEA1ihAAoBpFCABQjSIEAKhGEQIAVKMIAQCqUYQAANUoQgCAahQhAEA1ihAAoBpFCABQjSIEAKhGEQIAVKMIAQCqUYQAANUoQgCAahQhAEA1ihAAoBpFCABQjSIEAKhGEQIAVKMIAQCqUYQAANUoQgCAahQhAEA1ihAAoBpFCABQjSIEAKhGEQIAVKMIAQCqUYQAANUoQgCAahQhAEA1ihAAoBpFCABQjSIEAKhGEQIAVKMIAQCqUYQAANX+P5hTe6Ul1nUnAAAAAElFTkSuQmCC;" vertex="1" parent="1">
          <mxGeometry x="360" y="303.6" width="70" height="36.4" as="geometry" />
        </mxCell>
        <mxCell id="wVAZ-YzccNhZugPFJvmi-10" value="" style="shape=flexArrow;endArrow=classic;html=1;rounded=0;exitX=0.5;exitY=1;exitDx=0;exitDy=0;entryX=0.5;entryY=0;entryDx=0;entryDy=0;" edge="1" parent="1">
          <mxGeometry width="50" height="50" relative="1" as="geometry">
            <mxPoint x="394.5" y="340" as="sourcePoint" />
            <mxPoint x="394.5" y="370" as="targetPoint" />
          </mxGeometry>
        </mxCell>
        <mxCell id="wVAZ-YzccNhZugPFJvmi-11" value="Shuffle Files" style="shape=process;whiteSpace=wrap;html=1;backgroundOutline=1;fillColor=#f5f5f5;fontColor=#333333;strokeColor=#666666;" vertex="1" parent="1">
          <mxGeometry x="310" y="370" width="170" height="50" as="geometry" />
        </mxCell>
        <mxCell id="wVAZ-YzccNhZugPFJvmi-20" style="edgeStyle=orthogonalEdgeStyle;rounded=0;orthogonalLoop=1;jettySize=auto;html=1;exitX=1;exitY=0.25;exitDx=0;exitDy=0;entryX=0;entryY=0.25;entryDx=0;entryDy=0;" edge="1" parent="1" source="wVAZ-YzccNhZugPFJvmi-13" target="wVAZ-YzccNhZugPFJvmi-2">
          <mxGeometry relative="1" as="geometry" />
        </mxCell>
        <mxCell id="wVAZ-YzccNhZugPFJvmi-28" value="executePlan()" style="edgeLabel;html=1;align=center;verticalAlign=middle;resizable=0;points=[];" vertex="1" connectable="0" parent="wVAZ-YzccNhZugPFJvmi-20">
          <mxGeometry x="-0.1059" y="2" relative="1" as="geometry">
            <mxPoint y="11" as="offset" />
          </mxGeometry>
        </mxCell>
        <mxCell id="wVAZ-YzccNhZugPFJvmi-23" style="edgeStyle=orthogonalEdgeStyle;rounded=0;orthogonalLoop=1;jettySize=auto;html=1;exitX=0.25;exitY=0;exitDx=0;exitDy=0;entryX=0.25;entryY=1;entryDx=0;entryDy=0;" edge="1" parent="1" source="wVAZ-YzccNhZugPFJvmi-13" target="t5OBkkhKOG6cYtw1sPyQ-18">
          <mxGeometry relative="1" as="geometry" />
        </mxCell>
        <mxCell id="wVAZ-YzccNhZugPFJvmi-25" style="edgeStyle=orthogonalEdgeStyle;rounded=0;orthogonalLoop=1;jettySize=auto;html=1;exitX=0.75;exitY=1;exitDx=0;exitDy=0;entryX=0.75;entryY=0;entryDx=0;entryDy=0;" edge="1" parent="1" source="wVAZ-YzccNhZugPFJvmi-13" target="wVAZ-YzccNhZugPFJvmi-14">
          <mxGeometry relative="1" as="geometry" />
        </mxCell>
        <mxCell id="wVAZ-YzccNhZugPFJvmi-13" value="CometExecIterator" style="rounded=1;whiteSpace=wrap;html=1;verticalAlign=middle;" vertex="1" parent="1">
          <mxGeometry x="45" y="240" width="180" height="100" as="geometry" />
        </mxCell>
        <mxCell id="wVAZ-YzccNhZugPFJvmi-22" style="edgeStyle=orthogonalEdgeStyle;rounded=0;orthogonalLoop=1;jettySize=auto;html=1;exitX=0.25;exitY=0;exitDx=0;exitDy=0;entryX=0.25;entryY=1;entryDx=0;entryDy=0;" edge="1" parent="1" source="wVAZ-YzccNhZugPFJvmi-14" target="wVAZ-YzccNhZugPFJvmi-13">
          <mxGeometry relative="1" as="geometry" />
        </mxCell>
        <mxCell id="wVAZ-YzccNhZugPFJvmi-26" value="next()" style="edgeLabel;html=1;align=center;verticalAlign=middle;resizable=0;points=[];" vertex="1" connectable="0" parent="wVAZ-YzccNhZugPFJvmi-22">
          <mxGeometry x="0.0667" y="1" relative="1" as="geometry">
            <mxPoint x="21" as="offset" />
          </mxGeometry>
        </mxCell>
        <mxCell id="wVAZ-YzccNhZugPFJvmi-14" value="Spark Execution Logic" style="rounded=1;whiteSpace=wrap;html=1;verticalAlign=middle;" vertex="1" parent="1">
          <mxGeometry x="45" y="370" width="180" height="40" as="geometry" />
        </mxCell>
        <mxCell id="wVAZ-YzccNhZugPFJvmi-15" value="" style="shape=image;verticalLabelPosition=bottom;labelBackgroundColor=default;verticalAlign=top;aspect=fixed;imageAspect=0;image=data:image/png,iVBORw0KGgoAAAANSUhEUgAABwgAAAOoCAMAAADyHlBJAAADAFBMVEUAAAABAQECAgIDAwMEBAQFBQUGBgYHBwcICAgJCQkKCgoLCwsMDAwNDQ0ODg4PDw8QEBARERESEhITExMUFBQVFRUWFhYXFxcYGBgZGRkaGhobGxscHBwdHR0eHh4fHx8gICAhISEiIiIjIyMkJCQlJSUmJiYnJycoKCgpKSkqKiorKyssLCwtLS0uLi4vLy8wMDAxMTEyMjIzMzM0NDQ1NTU2NjY3Nzc4ODg5OTk6Ojo7Ozs8PDw9PT0+Pj4/Pz9AQEBBQUFCQkJDQ0NERERFRUVGRkZHR0dISEhJSUlKSkpLS0tMTExNTU1OTk5PT09QUFBRUVFSUlJTU1NUVFRVVVVWVlZXV1dYWFhZWVlaWlpbW1tcXFxdXV1eXl5fX19gYGBhYWFiYmJjY2NkZGRlZWVmZmZnZ2doaGhpaWlqampra2tsbGxtbW1ubm5vb29wcHBxcXFycnJzc3N0dHR1dXV2dnZ3d3d4eHh5eXl6enp7e3t8fHx9fX1+fn5/f3+AgICBgYGCgoKDg4OEhISFhYWGhoaHh4eIiIiJiYmKioqLi4uMjIyNjY2Ojo6Pj4+QkJCRkZGSkpKTk5OUlJSVlZWWlpaXl5eYmJiZmZmampqbm5ucnJydnZ2enp6fn5+goKChoaGioqKjo6OkpKSlpaWmpqanp6eoqKipqamqqqqrq6usrKytra2urq6vr6+wsLCxsbGysrKzs7O0tLS1tbW2tra3t7e4uLi5ubm6urq7u7u8vLy9vb2+vr6/v7/AwMDBwcHCwsLDw8PExMTFxcXGxsbHx8fIyMjJycnKysrLy8vMzMzNzc3Ozs7Pz8/Q0NDR0dHS0tLT09PU1NTV1dXW1tbX19fY2NjZ2dna2trb29vc3Nzd3d3e3t7f39/g4ODh4eHi4uLj4+Pk5OTl5eXm5ubn5+fo6Ojp6enq6urr6+vs7Ozt7e3u7u7v7+/w8PDx8fHy8vLz8/P09PT19fX29vb39/f4+Pj5+fn6+vr7+/v8/Pz9/f3+/v7////isF19AAAACXBIWXMAAC4jAAAuIwF4pT92AAAgAElEQVR4nO3dd4DlVPn/8bu9sezSexFQEURpAlJEOj9AQYoFVkCUKogKfCkqUkVAQBFFUYogiCACSkelCCtdunSQDtLZXbZOfjtz78zckpznnOTkJifP+/WPMpOcfO41Ph9mJjepRQAAKFYrOgAAAEWiCAEAqlGEAADVKEIAgGoUIQBANYoQAKAaRQgAUI0iBACoRhECAFSjCAEAqlGEAADVKEIAgGoUIQBANYoQAKAaRQgAUI0iBACoRhECAFSjCAEAqlGEAADVKEIAgGoUIQBANYoQAKAaRQgAUI0iBACoRhECAFSjCAEAqlGEAADVKEIAgGoUIQBANYoQAKAaRQgAUI0iBACoRhECAFSjCAEAqlGEAADVKEIAgGoUIQBANYoQAKAaRQgAUI0iBACoRhECAFSjCAEAqlGEAADVKEIAgGoUIQBANYoQAKAaRQgAUI0iBACoRhECAFSjCAEAqlGEAADVKEIAgGoUIQBANYoQAKAaRQgAUI0iBACoRhECAFSjCAEAqlGEAADVKEIAgGoUIQBANYoQAKAaRQgAUI0iBACoRhECAFSjCAEAqlGEAADVKEIAgGoUIQBANYoQAKAaRQgAUI0iBACoRhECAFSjCAEAqlGEAADVKEIAgGoUIQBANYoQAKAaRQgAUI0iBACoRhECAFSjCAEAqlGEAADVKEIAgGoUIQBANYoQAKAaRQgAUI0iBACoRhECAFSjCAEAqlGEAADVKEIAgGoUIQBANYoQAKAaRQgAUI0iBACoRhECAFSjCAEAqlGEAADVKEIAgGoUIQBANYoQAKAaRQgAUI0iBACoRhECAFSjCAEAqlGEAADVKEIAgGoUIQBANYoQAKAaRQgAUI0iBACoRhECAFSjCAEAqlGEAADVKEIAgGoUIQBANYoQAKAaRQgAUI0iBACoRhECAFSjCAEAqlGEAADVKEIAgGoUIQBANYoQAKAaRQgAUI0iBACoRhECAFSjCAEAqlGEAADVKEIAgGoUIQBANYoQAKAaRQgAUI0iBACoRhECAFSjCAEAqlGEAADVKEIAgGoUIQBANYoQAKAaRQgAUI0iBACoRhECAFSjCAEAqlGEAADVKEIAgGoUIQBANYoQAKAaRQgAUI0iBACoRhECAFSjCAEAqlGEAADVKEIAgGoUIQBANYoQAKAaRQgAUI0iBACoRhECAFSjCAEAqlGEAADVKEIAgGoUIQBANYoQAKAaRQgAUI0iBACoRhECAFSjCAEAqlGEAADVKEIAgGoUIQBANYoQAKAaRQgAUI0iBACoRhECAFSjCAEAqlGEAADVKEIAgGoUIQBANYoQAKAaRQgAUI0iBACoRhECAFSjCAEAqlGEAADVKEIAgGoUIQBANYoQAKAaRQgAUI0iBACoRhECAFSjCAEAqlGEAADVKEIAgGoUIQBANYoQAKAaRQgAUI0iBACoRhECAFSjCAEAqlGEAADVKEIAgGoUIQBANYoQAKAaRQgAUI0iBACoRhECAFSjCAEAqlGEAADVKEIAgGoUIQBANYoQAKAaRQgAUI0iBACoRhECAFSjCAEAqlGEAADVKEIAgGoUIQBANYoQAKAaRQgAUI0iBACoRhEC1fb000UnsENOFIYiBCrtW7XaPnOKDmGBnCgORQhU2TO1uXYt/+QmJwpEEQJVNrl3cNe+PKvoHBJyokAUIVBl9cFd/p9hyIkCUYRAlTUGd+l/hiEnCkQRAlXWP7jLPrnJiQJRhECVDQzukk9ucqJAFCFQZYODu9x/1yInCkQRAlXWNLhL/TMMOVEgihCosubBXebJTU4UiCIEqqxlcJd4cpMTBaIIgSprHdzlndzkRIEoQqDK2gZ3aSc3OVEgihCosvbBXdbJTU4UiCIEqqxjcJd0cpMTBaIIgSrrHNzlnNzkRIEoQqDKYgZ3KSc3OVEgihCosrjBXcbJTU4UiCIEqix2cJdwcpMTBaIIgSqLH9zlm9zkRIEoQqDKEgZ36SY3OVEgihCosqTBXbbJTU4UiCIEqixxcJdscpMTBaIIgSpLHtzlmtzkRIEoQqDKDIO7VJObnCgQRQhUmWlwl2lykxMFogiBKjMO7hJNbnKiQBQhUGXmwV2eyU1OFIgiBKpMGNylmdzkRIEoQqDKpMFdlslNThSIIgSqTBzcJZnc5ESBKEKgyuTBXY7JTU4UiCIEqsxicJdicpMTBaIIgSqzGdxlmNzkRIEoQqDKrAZ3CSY3OVEgihCoMrvBXfzkJicKRBECVWY5uAuf3OREgShCoMpsB3fRk5ucKBBFCFSZ9eAueHKTEwWiCIEqsx/cxU5ucqJAFCFQZQ6Du9DJTU4UiCIEqsxlcBc5ucmJAlGEQJU5De4CJzc5USCKEKgyt8Fd3OQmJwpEEQJV5ji4C5vc5ESBKEKgylwHd1GTm5woEEUIVJnz4C5ocpMTBaIIgSpzH9zFTG5yokAUIVBlKQZ3IZObnCgQRQhUWZrBXcTkJicKRBECVZZqcBcwucmJAlGEQJWlG9zdn9zkRIEoQqDKUg7urk9ucqJAFCFQZWkHd7cnNzlRIIoQqLLUg7vLk5ucKBBFCFRZ+sHd3clNThSIIgSqLMPg7urkJicKRBECVZZlcHdzcpMTBaIIgSrLNLi7OLnJiQJRhECVZRvc3Zvc5ESBKEKgyjIO7q5NbnKiQBQhUGVZB3e3Jjc5USCKEKiyzIO7S5ObnCgQRQhUWfbB3Z3JTU4UiCIEqszD4O7K5CYnCkQRAlXmY3B3Y3KTEwWiCIEq8zK4uzC5yYkCUYRAlfkZ3PlPbnKiQBRhyUx/8JqzTzn+h8efcubld79edBiEz9Pgzn1ykxMF0lqE59TPxq+btvlN3Pk7ZNzCK2y6388f9naUZm+escGI5oN95Dv3GJM9aVjr341tLhdfUpu7bNMiBL4Gd96Tm5wokNYi3KB+Mo6fYtjG2BpLHPi4n6MMen7vkZ3H+ewNhmQUISTeBnfOk5ucKJDSInyy/2Q817CR0BpDtn7Mx1H6zTxqVML/X15NTEYRQuJvcOc7ucmJAiktwiP6z8XPGDYSW2PE4eYz2eooDU99MvEwi0xOSkYRQuJxcOc6ucmJAukswjlLDpyLhi6xaI3Pmq5nsTtK3c3zG44y6pKEZBQhJD4Hd56Tm5wokM4ivHbwVDwieSub1vjYG1mP0uemMYPbLrzVd4//6QlHfHmVIQNfGnFjfDKKEBKvgzvHyU1OFEhnEX5x8Excck7iVv2tcc1DTR781w2/2v/Dg/uv+UHGo/S6d57+DUd//Y6e/q++fNrS/V8e33plTuYivPyhZNOMUREYv4M7v8lNThRIZRG+1XxZyrWJmxnq5t7tB/b/dsajzPX2h/o3+/yzLd+YftjQxjc+Pdsy2QBjEYq/qkVVeB7cuU1ucqJAKovw580n4k6Jmxlb48r5Gt8d0nEpi9tR5tqxsdHQn3Z869L+T1T8zDpZA0WIXr4Hd16Tm5wokMoiXL3vBBy5TN9/jHozaTNzazy8cOPbm2Y7ShRd3Vho6IUx3zy38c1Fplonq6MI0cv74M5pcpMTBdJYhA/Uz7/tT63/5+lJ2wmt8c/hje/HX11ie5Ro1vKNdU6I/fbOje+eap+sD0WIXv4Hdz6Tm5wokMYiPLB++l3+yrC+/1w1aTupNfZvfD/+r4S2R4l+11hmk/hvvzy6/u2POSTrRRGiVw6DO5fJTU4USGERzlyw7+Sbf0a0Zf00/HfChlJrvNK4L+hSmY4Sfaz+/RFPJXx/70aMph88KULYymNw5zG5yYkCKSzCy+rn3j5RdGH9vx2QsKHYGts1Nngxy1Fuayyyb9JR7mps8D2HZBFFiLpcBncOk5ucKJDCIty6furdHkVT6x/fm396/IZia/RvcFWWo+xZ33BIcjc1PlyxnkOyiCJEXT6D2//kJicKpK8IG3+zW673v+9aPwnb72DWILbGvY0Nfp7hKD2Ni083Tk78jfoWIwablCKErZwGt/fJTU6/OeFEXxGeWD/vjuz97zfW//uW8VuKrfFWY4PjMhzlvsYaZyQn7r+a5iH7ZBFFiLq8BrfvyU1OmrBA+opwxfpp90Tvf5+zRN9/H/pC7JZia8xqbHBYhqP8pLFG0qUy0eAPnpfZJ4soQtTlNrg9T25y0oQFUleEjfN4nfo/HVL/p+NjNxVbY0pjg6MzHKXxMcEJhsgzb6p7yT5ZRBGiLr/B7Xdyk5MmLJC6Imxcm/KL+j89WP+nFWI3FVvj2cYGp3Z8x/4oK9e/t4HTi6AIYSvHwe11cpOTJiyQtiKcOm/fGTei/+lJjcfh3hK3rdga1zQ2uCjDURp35k76cEU8ihC28hzcPic3Of3mhBNtRXh+/YT7fP8/N/5Et1vctmJr/F9jgwfTH+X1xhKGa2XSJIsoQtTlOrg9Tm5y+s0JJ9qKcKP6+XZp/z+/XP+Yw7j3Y7aVWqOncZPQUTPTH+X+xjEucHoVFCFs5Tu4/U1ucvrNCSfKivCZ+lPfJw5+JG/z+vn325iNpda4vPH9rTIc5ZbGGlc6vQyKELZyHtzeJjc5/eaEE2VFeGT9ZNtz8CsX1L+ybszGQmtMWa7x/d9kOMr1jTVudnoZ/clufDZZf03HFmHSjq84xUAA8h7cviY3Of3mhBNdRdhTfzhg81UrU8bVv/RY59bmIpy5TePb87+X4ShXNha51+l19CezEVuESTZ0ioEA5D64PU1ucvrNCSe6irBxj5dlepq+9tX61w7t3NpYhK9s1H/eHpvlKP0/tyU+myIWRQhb+Q9uP5ObnH5zwomuImx8ev17zV+7of61xWZ3bG0owjd/PKH/rP3wlCxHoQiRry4M7tquc8hZtpxwoqoI3xlTP8/+0/zFOYvVv9j5CIn4P6g9euelx202euCcHX5npqNQhMhXNwa3j8lNTr854URVEZ5ZP8s+1frVg+pf3b5jc5u6GfbHbEehCJGvZxzOlfSyT25y+s0JJ6qKcK36Sfaz1q82Pso34vX2zS3qZuzFGY9CESJnezqcLOlln9zk9JsTLjQV4SP1U2z4a21fX6X+9dPat5frZqWH2vdxPUq2q0b5HCFEc3bLOJPtZL7Cg5x+c8KFpiJs/HZy6/avn1T/+irtX5eKcOEz4s5Vt6Nk+xwhRQhZKJObnH5zwoGiIpy1SP0E6/ht5ktD69+4u+3rxiIcucXF09sXSnGU/jvL/MXppVCEcBDK5Can35ywp6gIG7+FHD+t4zub1r+zX9uX44tw9PzLrPfVY//euUqqo/TX1e+dXgpFCBehTG5y+s0Ja4qKcNv62fWphzo0Hpxb+6B1h1St4XiU1xpf/FnSerEoQjgJZXKT029O2NJThK+NEM+7tucKpmkN16P0jKx/cW+n10IRwk0ok5ucfnPCkp4iPEU+7TZr3SNNazgf5WP1L67n9FooQjgKZXKT029O2NFThB+Xz7qh/23ZI01rOB/ly/UvTjSsOfOmupecklGEaBbK5Can35ywoqYI77I5645u2SVFa7gf5cTGF2OeftG+6GVOyShCtAhlcpPTb07YUFOE+9qcdB9qfmBEmtZwP8qdjS/+KHnRsxqbPOKUjCJEq1AmNzn95oQFLUX4wUSrk+4fzfu4t0aKo8xZoP61NZJX3aW+xegZTskoQrQJZXKT029OyLQU4UX1c2pY0iPYV65/f1Lz19xbI81R+v/P9FTSonMWrW+wsVsyihDtQpnc5PSbEyItRbhZ/ZTaIun7P65/f8y7TV9zb400R/l74yh7JO10U2OD492SUYToEMrkJqffnJAoKcLnG/c3S7yBywuNDX7d9DXn1kh1lJ7l618b9njCTpMaMZq+TxEinVAmNzn95oRASREeUz+f5ul4mvyAjetbrN30JefWSHWU6FeNw+wYv8vzjY/or+uYjCJEjFAmNzn95oSZjiLsWa5+Ou2avMm5jTNu8NJM59ZId5Ro+pKNL14Yu8uOje82/5hJESKtUCY3Of3mhJGOIuz/M9uNyZu8N7a+ycGDX3JtjXRHiaI/NPYbe3vMHuc0vrli84M6KUKkFsrkJqffnDDRUYS71s+lxU1Pff5KfZtFBs8319ZId5Ro4Bqb2oTOCr2kcS/S2p+bv0oRIr1QJjc5/eaEgYoifG9c/VQ62LTRNY3z7YqBrzi2RsqjzPXywo2vDv/hzJatpx0ypPGdL7V8nSJEBqFMbnL6zYlkKoqwf/w/YNpoduOJutt27GbZGimP0uvvA8+sWO7Mtwe++twJS/R/edk3Yw+VugivfTLZ20kroipCmdzk9JsTiVQU4br18+gT5q2+Xd9q+Kv9X3AswpRH6XPJsIGzffj6+5145i9OPnSHDw/+P2DBto9WZC5Ck1PsXi4CFsrkJqffnEiioQgfb5xGJ5k3u7ex2cn9X3ArwrRHqbt0jOH8X/y+tkUoQmQTyuQmp9+cSKChCA+tn0RDXxS2W6m+3Ur9/+xWhGmP0nDHUoln/xodS1KEyCiUyU1OvzkRT0ERzl68fg5tKm14QuNku6Pxz05FmPoo/d7dY0gtzuhjZ3asQREiq1AmNzn95kQsBUV4deMU+p204fONJtqr8c9ORZj6KIPu3bLzvB+9Z9zNuClCZBbK5Can35yIo6AIG7dmGfu+uOVG9S3nnVb/R6ciTH2UZo8dsnzzOT9y41Nei12CIkR2oUxucvrNiRgKijAsz1189G7bbbr59rsdcvbtcqkC6YUyucnpNyc6UYSAVqFMbnL6zYkOFCGgViiTm5x+c6IdRQjoFcrkJqffnGhDEQKKhTK5yek3J1pRhIBmoUxucvrNiRYUIaBaKJObnH5zohlFCOgWyuQmp9+caEIRAsqFMrnJ6TcnBlGEgHahTG5y+s2JARQhoF4ok5ucfnOiH0UIIJTJTU6/OdFAEQIIZnKT029O1FGEAMKZ3OT0mxN9KEIAUTiTm5x+c6IXRQigVyiTm5x+cyKiCAE0hDK5yek3JyhCAP1Cmdzk9JsTFCGAfqFMbnL6zQmKEEC/UCY3Of3mVI8iBDAglMlNTr85taMIAQwKZXKT029O5ShCAE1Cmdzk9JtTN4oQQLNQJjc5/eZUjSIE0CKUyU1Ovzk1owgBtAplcpPTb07FKEIAbUKZ3OT0m1MvihBAu1AmNzn95lSLIgTQIZTJTU6/ObWiCAF0CmVyk9NvTqUoQgAxQpnc5PSbUyeKEECcUCY3Of3mVIkiBBArlMlNTr85NaIIAcQLZXKT029OhShCAAlCmdzk9JtTH4oQQJJQJjc5/eZUhyJEVfS8dOt5Jx7ytW02WnfNVVZada0NNt1h7++ddsk9bxedK2ihTG5y+s2pDUWICnjvltMmfXxMwlCYb519f3PvjKIjhiqUyU1OvzmVoQhjzPrOQjbn2tgtnvFzvPd2n5D9zB85foGl19hi0vfP/ef/qhPGxgd/O3ytYWKiMZv9+K7ZKY8wfeeJpqWHrfhHp+Wmfm0+03KLHjDdLd5ta4xIXm3o0ke5rdYhlMlNTr85daEIYxxpe7Kt0uPleHt4/v/AMl844c45lQgjmnLJTmOtoyy01w2ppsM50sLD7nFZbm9pub2d0r1ubOm57ndarlMok5ucfnOqQhF2mrWg9cn2dy8HtPr509HEHS56P/wwglt2tm/BugX2f9j9MOeJy+7lsNr7o6XVRjq9WadJy/3L8eV2CGVyk9NvTk0owk5/sz/X9vVywFH5/B9hzA7XpfiJtVRhTN4/faVUSda/0HVAPC+uuaLDajfIEa9zSfd5YbEhbzm+3E6hTG5y+s2pCEXYaT/7U20xL8M9p+6Za/lTnH8SK1WYZO8ct0DqIB/6teOlMyuISzr8KfQoOeDhLuGkH+FXcXutsUKZ3OT0m1MPirBDzxIOp9pkH0fMr3tqtQWOfy/gMEmmHSP9YcxsybOc/mwp/lWvdoX9YpvL8dZ1yPaEtNg3XV5pklAmNzn95lSDIuzwL5cz7WAfR8yze2q1hdyGfqnCJLhoqcxBVr3Z4XiXiMsdYr3WHIuLckdOs892nrTYJQ4v1BA7kMlNTr85taAIOxzicqIt7+OI+XZPrbbanaGGifWf9bwE+eJr1kf83xBpsU9br/WgTTaHi7D2ktZ6xX4tk1AmNzn95lSCIuwg/0GoWdZr03vl3T21YUfY/1GsVGFizD5JvOrS0oJ/sD7oqtJaIz+wXepXNtGOtH8/Pi4s9RH7pcxCmdzk9JtTB4qw3QNu55nDyEqUe/fUap98MsgwnZ5d22OQHd+xPOpB4lK32L6AXW2CbWj9frw7VFjqG9ZLSUKZ3OT0m1MFirDdUW6nmY9r8rrQPbWJV4cYpsPV83sNssIDdoe9RlzpR7avwOoXDqOtby5znbTU+bYryUKZ3OT0m1MDirDdJxxPsww/3fTrRvfUhpwSYJg2PUeKf6xzNMauJ6YYbmJWt5XlS3jdLpf1D5jiXZCes13JQiiTm5x+cypAEbZ5yvUsOzH7MbvSPbXaoeGFaTVj5xyCHGN16PWlZSZafqL0Cp+p5tpUWGhp24WshDK5yek3Z/VRhG1Ocj3J1s5+zC51j90nykoVpsW7G+cSZC+be3H/UFzmQbsX8X92oTaxfE/mzCssNMlyIdvjBTK5yek3Z+VRhG3WcT3HhryY+Zjd6h6rO5aUKkyzd9bIKchOFk14q7jKmXavQvzRsm7sTLvl7pcWOstuHWuhTG5y+s1ZdRRhq5fc/wj188wH7Vr31E4NLEyT95z/FcXaLvKH/GeOExexehUzkx6a2O52u3fll9I6j9mtYy+UyU1OvzkrjiJs9Qv3U2zjzAftXvcMk2/nXKowg6ZukGOSPeTjbyGtsYzVy7jDNtIJdm/LJGGZReyWcRHK5Can35zVRhG22sT9DBv+RtaDdq97ahOfCCrMgJ4dck0iP7xW/tvxCzav41TbRFvavS/LCcvsaLeMk1AmNzn95qw0irDFm8NTnGHnZD1qF7untqb0f4dShRlwWL5BhlwsBbhXXENcoteOtonG21zCE70mLXO6zSquQpnc5PSbs8oowhbnpjnBtsl61G52T+0HIYXp9/u8g4y+W0gwR/wk//42L8T+ySZ32Sz3Z2kVH3cA7BTK5Can35wVRhG2+Fya82tU1sfsdbV7ht0bUJiGx8VLVTJbTnpAlPi72VUtXshz9oFOtnljDhYWmejjWR8xQpnc5PSbs7oowmZT0t3P+Y8ZD9vV7qmtY/7od6nC1M1YrQtJpKs+xeszh70rv5KL7PNY/Z5hXR+LpBHK5Can35yVRRE2k587F+tLGQ/b3e6p/TacMHXyLa99uMAc4nFxgevlV7K/fZwJFj/MzZD+xzrJ4t1NJ5TJTU6/OauKImz25XRn13jrWyTH63L3LGp87GupwvS5e1hXkizwP3OMJaUFLP7gubpDnvvk5SZLa9whr5FWKJObnH5zVhRF2GSGdL+qJH/Ndtwud0/NeMfrUoXpNbsbvxjttas5hzioNhL/h57qclHyaeJy0U+EJcblOfVCmdzk9JuzmijCJlelPbm+lu243e6ehaeGEqaX9UfvmqV6SsU/jDnOl3YfK46Yf7ik2U5aLYq2F5bYVF4ig1AmNzn95qwkirDJ19OeWwtYfegrUbe7p/arUMLM9dZEl8UW3f6EP9710juzomlvPHPTOYdv5HS56erGK3deEvcXP/FwnEuaBeTriBYTlrB+hkU6oUxucvrNWUUU4aDZC6U+t8w/S0jE7llhZaPlF3O82nXlUMJE1o9r6LXKcY+37z3r9gPtP7pX+4MxyUel3cWbp25lH2Wuh6TlnpFWuFlaIaNQJjc5/easIIpw0E3pTy2rD1MnkrpHfmJRzyv/PGWH8fZ5DcVdqjBzfw6zvUv10O0TfiDruUL6kMGAFYwTYj9p9+2lN0b8UH6LM4TlxNsMjPpAWiGrUCY3Of3mrB6KcNAB6c+sJS0fyxpP6h6rz1ZH0fQrN7PNu3sgYaLo25aLbPqoYZG/rWS5ynmmKJdJe0t3uH7UMkXDTsJyYjOvLy2QXSiTm5x+c1YORThoqQxnVqbr1D11z1z3W7bPhOQPfJQqTPSO3U+WCwg3+px10kirdT5hWuStodLuT5pT/NYqw4CFzatF0arCAkdIC3gQyuQmp9+cVUMRDrgry4l1aJYj++ueKLrU7tdvV4QRJjrZaoG1/itGuWsZq5VuNK0hPhn4XHOGPawiDPqPebn3pc9XujzmKrVQJjc5/easGIpwQKYHHHw4y5F9dk/04po2eb8RRpg5S9vs/+UZFlHeXNtmqa1NS4jX7XzdHGFFmwRNhOtp/ybsPky6faofoUxucvrNWS0U4QDxokAj8RI/A6/dE03dxiLu0mGEudFi79oedneWfv+zFmsNe8WwwvXS3isaA7zl+uHGr5hf0DHC7mtavS3ZhTK5yek3Z6VQhP0eznZaHZ3h0H67J5ph87e5xF+7lSrMrhY7T7K9UGmazc+Epo9ATBX/0Gi8S5vz/RoWN7+eLYXdv2v5vmQWyuQmp9+cVUIR9pP+/VrwyQyH9tw90ZRV5LyJN7suU5gp88j7rm9/o9dXLf5OaHyY0obS3oa/dkbREfLR2xgvvumZL0sYr0KZ3OT0m7NCKMJ+0iV4kqfTH9p390SPywWydwhhLhX3rC0q3Cq7xf0W144+Ydhf/Jelg01H/6x88DZnm5aTfoUx5E2HdyajUCY3Of3mrA6KsOHZrCfVT9If23v3RKeJcdcIIczu4p61q52inCAv+FPD7rdLO3/asPNs96cLG28Dfpaw88ed3pmMQpnc5PSbszIowoZTsp5T66Y/tv/umb2yFHdU0hUmJQrTs6i0o+vtzuesJa64uWH3WdKnGkca7uVyj3joDsuYXsvuws77ub01GYUyucnpN2dVUIQN6wlnzHLSvZ+HvJz62P67J7pQ/L/As+UPc5+431jXN/02cclRUwy7izcLvSV53w66qQsAACAASURBVNPFQ3d6zpDlI8K+wj0GfAtlcpPTb86KoAjrXpXuGvL4sdIp9cvUB8+he2aLt5pO+uh4icL8VNqt9n3nLJ8X1zTd+lT8vcHxyfumeerz75KXe0PaN/2/mKUTyuQmp9+c1UAR1p0pnC6rRA9IZ1T6h7/l0D3Rd6S4SZ/WLlEYsTrGuF8Pcqe0Zu0Ew973Sztvlbyv1b0B2uyRvNxfhF1XcH5rsgplcpPTb85KoAjrNhfOlsOiaFlhk+FvpT14Ht3zT+n8T/rgY4nCLCvtluaByOK9brY17NwjPalrYuKHGuXHGcZYPjmKdCMkQ4fmJZTJTU6/OauAIuzz9gjhZLnN4uEUht9jmeXRPTOkpwImPTmqPGFeF3aq1e5MkUW88/Wipr2/KO39YNKel4ivJs6LiUk+I+xpfJBGTkKZ3OT0m7MCKMI+5wunygJzougG6Xwy/ShhlEf3ROsIi36p9GHE50MulSbKG9Ktqmumn+x/Le18ZtKets+TanVh0nKzxgp7PpPmzckqlMlNTr85w0cR9tlOOFMmzd1m5rzCRmNM1xua5NI9uwiL/r/ShxFLJ90HBNaXljU9UuspaeddkvaUP7gRZ6+k5aRnpSyZ6r3JLJTJTU6/OYNHEfaaKj0Gve9S9J2k0+nSlIfPpXu+Jyy6cenDHCTsVPtrmijRj6Rljb/ilu7StkzCfh9Iv3yPl3gbb+mK2p1TvTfZhTK5yek3Z+gowl7Ss8eHv9271QXS2ZR2+OTSPScKi65X+jDiJx1eSxNFfHqR+TMZ4jMFX4jf71ZpvwSvJuSQ/lgpPMIpP6FMbnL6zRk4irCX9Ju7Dfu2elP669IEm+fixcile84QFv1U6cNI13cmP73J6B3paUjG6y3FmwMkfI79x9J+CS5JyLGksN+j6d4cD0KZ3OT0mzNsFOFcM6W7xjSGv3ShXu2adMfPpXukO3yuX/ow0gfvPpcmSSR/KmMb086vCDsnXY0rf5A/3jfjl3tB2G2hlO+ND6FMbnL6zRk0inCua6VzpPG8vJOl7ZIftW6US/ccJyya9Pn/8oRJ+wEQifTvM0k/K9etJOyd8Bwn6QOISRJunX2xsNv2Kd8bL0KZ3OT0mzNkFOFcewpnSP/Hmh+XTqWF7J6V3i6X7vmWsGjSzz2lCfOesE/tpDRJ5pokrLuscW/p46RD343b6wnpxSQZ8kZsCukNNT1DI3+hTG5y+s0ZMIpw7mm2iHCCHNi/pXSfY9M9lw1y6Z6tpbO+7GHEX0ImfsZOcKiwrvnXildIsa6P2+s8aa9Ef45NIf399L6U740noUxucvrNGS6K0OKCvoFbQh8sbXmg6TiJcumeZYVFv132MM8J+6R+Arv0eN3xxr3fkS6Z+kHcXntJLyZR7Ck1TfgwxoR0v5rwJ5TJTU6/OYNFEcr3/Bg/cDHoLdKJlO5Cxjy650UpatIvFksTRvxFdOyPXhZ+Iqw70ry79Mn4jeJ2+rj0YhLF/s3xZmEnw72/uySUyU1OvzlDRRHKn5EevPBg9gLSiXR3mgB5dM85UtILyh7mQWmnW1Mk6fULaeHEG2f3OVzYe2zMLHlXespXsqFvx2SQbgrw45RvjUehTG5y+s0ZKIpQfnL4OYPbStdZ1A5PkyCP7tlMSnpb2cP8W9rpnymS9JIeuVUzzwLxA/l3de5znbSPQdz9c7YR9pmc8q3xKZTJTU6/OcNEEUZHCGfGkKabe4iPEEi8JZZJDt3ztHhr6XfKHqasRfiB9LGOUzv3OVI6pMHBMRkWNO8ydmbKt8arUCY3Of3mDBJFGH1MODHWatr23ZHSaZTmjh45dM/eUs7EJzeUJkxZizDaWNg95jN8m5q2P9l8BsZ8rPExIUHSfWS7LJTJTU6/OUNEEUpDpXZM89biL/mOSxHBf/c8NFzKmXg5RWnClLYIjxd2X6RjjzmmB5eMn23+i9+w9zrWk/7melTKd8a3UCY3Of3mDBBFKI212r3NW58ubb16igjeu2f2euLJ/qPShyltEd4h7f9k+x73m7beWPr8zrUdCb4hBPhHynfGu1AmNzn95gwPRbiGcFIs3rL1c+JJ9Jx7BO/dI13YWDNcTlGaMKUtwtkThP3Pbd/jl6atj4imm9/zwzoSCLd5Gzkt5TvjXyiTm5x+cwZHfRH+Vzon9mzd/hPS9jGXSkh8d8/vpecr1GrjEi+nKE2Y0hZh9Dlh/6+372C82PgvUWT+mfnT7cu9Lbyl66Z8Y/IQyuQmp9+coVFfhNIDTmtXtm4vPWK2toF7Bs/dc6n4N7labdvyhylvEUrnTMelw8uZtn5duunbiKlty10jHL/zR8gChTK5yek3Z2DUF6H0KILRbVPoTukMGur+uFi/3XOqzYe3Lyp/mPIW4UPSAv9r3f4107a9d3S/yrzcjW3H/75w+JRPA8tJKJObnH5zhkV7Eb4ufcRty7YdehaVzqBfO4fw2T1vfsnmLB/zfvnDlLcII+ku7W13Qf2zadtdIvF3nd9vO7zw+Y1hsc+/KE4ok5ucfnMGRXsRniWdDme07yFdsVfbwjmEv+6Zc/Zidid5AGFKXIRfERZo+wy88V7tfSeY+Vakn2ldbvY85qOnuXA5V6FMbnL6zRkS7UW4pXQ2dFwEeqW0x4ike7Yk8tU9U38t3RygX9L91coUpsRF+FthgbbLW9Y1bXtP7xb7GJcb9UHLcvcJR096rkhxQpnc5PSbMyDKi1C8U0znA8KnjZHOn9+7ppC652iLNXoeP29H4SeFQauFEKbERfissMDIluaaYXpLx/Qd7ELzeje3HP0M4ejxTzAsVCiTm5x+c4ZDeREKAyj2Ajzphsdxt9gyk7pn/v0PMtp/j+1Wlz7b1uL8EMKUuAjNl4HW2h7QPNm05fp9mzxvXq71Xz52Nm88pO1SnVIIZXKT02/OYCgvwh2kMyHm13binxXHun6eWeoe31YyPba1NGHKXIR7Cisc37yx8fmHh9S3Wcq4XOu9Q5c1H3ullG9LvkKZ3OT0mzMUuotw2jjhPFhgdudOL4ufEHf93VS3u+fyIMKUuQgvFlZouXnq9qYtL6tvY/4pb8yMpuVeEY69T8q3JWehTG5y+s0ZCN1FeLl0GuwSt9enpL0mOcbocvesF0aYMhfh68K/DE1sfrav8drZl+rbGG/C1vqLiT8J6ZM/IlqsUCY3Of3mDIPuItxVOgv+ELfXMdJeEx0fB9fd7hn5SBhhylyE4p32Hhzc9BnTdks3NnrQvFzzr1q/Kxz6xZRvS+5Cmdzk9JszCKqLcNZ8wjkw/O243YzPEuhzvVuO7naP8Iye0oQpdRF+W1jil4Ob/t603RcbG/WYT8XNmw69jvnIy6V8V7oglMlNTr85Q6C6CG+QToEN4/dbWtpvb7ccXe2e1WYEEqbURfhXYYmm36nvZ9pu4BbtWxuXm2cw0nThEz+7p3xXuiGUyU1OvzkDoLoIzR9jriV+ePyb0n6Lmi7L7NTN7pnwdChhSl2E7wn3El9mcNNVTdsNPIDqBPN6dw4sd5sQ/pyU70pXzBH/GOHFnnIScnYzZ/lpLsIe8Q5gj8bveJ145rjN6G52j/GK0VKFKXURRp8W1nihf8P3TXezHTm9f7N/mpc7aeDAJwkHfirlu9IdXZrcz5CzXDlLT3MR3i79z5/055YZ46U9v+sUpIvdc3w4YcpdhNITIAYus/qbaau1B9YTHs679cCG25mP2/oc6dIJZXCT02/O0tNchAdJ//N/K2lP8XP4H3IK0r3uOSCgMOUuwpuENfbv39B4jfGBgwuub1xuwsAv24UnXxhup14Cofwqj5x+c5af5iKU7pNVuyFpz9+Jp859LkG61j2TLP52WZow5S7C6cItZ1ft39B4W/eLBxc8zLzevY3NnhKy/zIqsW5d3BFzGwxyFpgzAIqLUBy04xMvaXxDeophxyPkjLrVPfvaXMNTmjDlLsJoM/MaQxsPBeyZaNqq6dkmwsN5+y8vPV/I/nDKN6UbQpnb5PSbMwSKi/AH0glguHm2+fdYNccbPnape44IK0zJi/DHwiLX1Td72LTNok3rvT3UuNy2jc2EK50X7GnPWR6hzG1y+s0ZBMVFuLJ0BpydvK906V6t9phDkq50z9gLAwtT8iK8W1jkB/XNjLdo3655wVWMy83faDjhljbbtccsj1DmNjn95gyD3iJ8QjoDhryavPN/xPPnBIco3eieFR6Uc5QrTMmLcI5wW6KN6pvtbtrmxOYF9zWv90DfRu+Zf24c/IB+6YQyt8npN2cg9Bah9Kut2qdMe384095t8u+eIQdMCS5MyYsw+oJ5kbH1VT5i2qblsYUXmdc7vW8j6WZI96R8T3IXytwmp9+codBbhGtJ54DxUezSnY9rtefto+TePSveGmCYshfhz4VV7urd6A3TFsOnNq/3gnm5Hfs2Osq80bxlnVuhzG1y+s0ZDLVF+KL4VMF7TbvfLJ5DP7PPknP3LPxLl3sFliZM2YvwUWGVvt9S/sW0xWqtC5pvYbtw3zabm4+5Zcq3JG+hzG1y+s0ZDrVFeLp0EixuvP5u9vzS/hvaZ8m1exY57n2nN6Y0YcpehNHi5lX6Ljo2fjpwv9b1zA/n7bvf35wJ5m1+lPItyVkoc5ucfnMGRG0RbiSdBd8w77+LtP+w/1lnybF7Vj5runz8coYpfRFOMq+ySO82nzFtcb5TrjMj8bGFLQ/wLY9Q5jY5/eYMidYilD8Sf4V5gYvF8+i31mHy6p4F979TPnhpw5S+CM8VlnkyimaNNW3wROt6D5mX67152q/Mm4wRHrFVjFDmNjn95gyK1iI8WzoNRglXNr47QlphK+swOXXPnjPTvDOlCVP6InxeWObcKLrL9P0F29YTHs672NxNhFtLfjblO5KrUOY2Of3mDIvWIjQ/B7VmcdnBJtIKI9+1DZNT95yZ6p0pTZjSF6H0GZqvR9FPTd/fun29bczrzf0BcgXzFkemfEfyFMrcJqffnIFRWoTvieP+DGmJn4nn0kW2aXLqnlVS3W6rNGHKX4TC7c4+GkVfNH3/2Pb1hI+2/iZ6XQj+t5TvSI5Cmdvk9JszNEqLUP4L37PSEs+IS+xkm0bqnlX+9Nc4J0m/nb0yzVtTmjDlL8JLhXX+Fy1p+vaN7esJD5+fFF1h3mDE1LiUhQplbpPTb87gKC1C47+p91pZXuPj0hrzfGCZRuqeHyfsd6Sw31q2b0cpw5S/CN8QPot6hfEz8kM7fnU+Y7RxuaWiQ83HWyflG5KfUOY2Of3mDI/OIpwuPmL+UHmRw8XzyfaHIKl7Tk7Y73Xz4Iz5mSOkMOUvwmg18zpbfsf03Y93rreBeb3jhCdo/l/KNyQ3ocxtcvrNGSCdRWi830cfiyH7L3GR3SzjpO2eaC9hxzRXEZYmTABFeLC0kknMB1Xlf7cyuirlG5KXUOY2Of3mDJHOItxdOhfmtzgX5iwirmI5UVN3z+PSfeJut31HShgmgCK8RlrJJOYpX1dnWa829J2Ub0hOQpnb5PSbM0gqi3D2AtLJsIvNMnuI55TlVXypuyf6nLCn/WcZyxcmgCKcIn6Y1OCRzvXeER6yZLZqyvcjJ6HMbXL6zRkmlUX4d/FssPrkg3ANX63jZpJJ0nfPLVKC++wSlDFMAEUYrS8tlWxC3OdJhMfumn0r5fuRj1DmNjn95gyUyiL8pnQ2DH/LZpmp0uUhwo27B6TvnuhTwq47WgUoZZgQivCH0lLJNotbb7/069Vqf0r5fuQilLlNTr85Q6WxCHuWkE6Hz9gtJN6epjbZap0M3SN9IHLof+xeSgnDhFCEt0pLJYu9C4zwcF6z11O+H3kIZW6T02/OYGksQvlyz5PsFhJugTzXwVbrZOie2csK++5q91JKGCaEIpw5Tlor0TVx6wkP5zVaMeXbkYdQ5jY5/eYMl8YiPEQ8IR61W+gl8eG+y1utk6F7otOEfYc/a/dayhcmhCKMtpTWSjLkzdj1lkm7Xq22V8q3IwehzG1y+s0ZMI1FKNy5uFZbznalNcRz6wGbZbJ0z/sThZ33tX0xZQsjPXsvvyJ0uC3qydJaST4av574mMtkv0/5dvgXytwmp9+cIVNYhOKArR1gu9TR4lI/tFkmS/dE/yfsPOpl21dTsjCPC2vVbnF7YQN+Iaw70mGt+6SQSXaLX0/+bXui51O+Hd6FMrfJ6Tdn0BQW4VHiKXG97VLyGFzFZplM3fOi9Fm2g2xfTcnCPCcsVbvO7YUNOElYd7zDWj3iR1ITJDyW6uGUy9Vqy6Z8N7wLZW6T02/OsCksQvGzWuPsn/NtfLpAnyctVsnUPdFXpZfzhvXLKVWYV4Slapc7va5B0s/xC7kstqOUMsG/45frmT/leu5XReUklLlNTr85A6evCJ8Wz4kF7S+W+Iy42IkWq2TrnvulCD+wfjmlCvOutNQFTq9rkHSx1DIui4l/cIw3LmnuCA/nTfbblO+GZ6HMbXL6zRk6fUVocXnDYitb+pC8ls2jcbJ1T7SpsPvEjuf9hBEm7QOhJF8R1l3TZTHxL5nxEu9AfmK69fqeX18CocxtcvrNGTx9RfjprpxZA4a8JEfK2D3XShlOcHl/yhNG+r2z5Q3sOqwrrOt2T9SlpBcc67Ck5W5Ptdzcf3lL+Wb4FcrcJqffnOFTV4Qvi5/98+wMOVPG7hEfEbzwNIc3qDxhVhdWSnFH8T7SjYV2d1ot3ai6Imk54eG8ib6Y8s3wKpS5TU6/OStAXRFK1857t7GcKWv3nCNl+JnDG1SeMNId7BZ3eFVNXpMCJv60Fut8ablYryauJ//ZOZbFv2/lLpS5TU6/OatAXRFu0pVzq8lw+TrJrN0zYzFhgSXtr4MtUZhvCQvVLH7rHOOv0rJul528JC0X50PJ6x2RZr1a7aFU74VXocxtcvrNWQnaivCt4V05uZqdK4bK2j3R8VKG39i/Q+UJc4a00GX2r6rJ96Rlb3Vbb0VpvRhfSV4u3cN+53e4G05OQpnb5PSbsxq0FeF5XTm5WnxODJW5e96S7v28vP3ZXp4w1wvr1PawflHNPiktm/xry1jiQ71inJ68XLqH826b6q3wKZS5TU6/OStCWxF+vitnV4vR70uhMndPtL8U4kLrd6g8YZ6X1ll4jvWrGvSstOpExwX/LC0Y4y7DemJRxzklxTvhVShzm5x+c1aFsiKckvKavEz+KKXK3j1PSz9GrGz9q7MShVlEWKf2D9sX1UT8oN6mjgu+5f4j3OiZhvXS/IRZuzvFO+FTKHObnH5zVoayIrykK6dXmy9JqbJ3T7SDFML6fmQlCiP++O72yPs+c5aVFv2e65JrSit2WNe03B+cl6vVxhc80EKZ2+T0m7M6lBWhdFORXIyfLqTy0D3iw4atb5dSojDiZTfDX7R9VQOukNas/cV1yUPFJdsZbz3+ovNytdoWzu+DV6HMbXL6zVkhuopwxrxdOcHaXSXE8tA94u1SrB+pUaIwN0vLuN9cZs6q0pJDXnddU7yop8OlxvWWdV6vdrxrZq9Cmdvk9JuzSnQV4dVdOcE6SFc3+uge8ZKNz1i+RyUKM3O8tM7wxy1fVb/zpBVraziuGEXTRoqLtnnBuN4k1+XSP6PYi1DmNjn95qwUXUX49a6cYR0WFE45H90zZwUpheWwLFOYbaVlXG+z9tbi4orfd1ux14bioq2WNC/n/nDe0dIv3/MUytwmp9+c1aKqCGcv1JVTrJNwdaOP7pHvHbel3ZtUpjAWlXCW3atq+JK84O1OC/Y5Rl61hXCNzyOOy9VqG7pn9iaUuU1OvzkrRlUR3tSVUyzG/uZcXrpnqvis9Hut3qQyhXlZ/mTCPI9Zvaq6c8XlaoumGBCuT4z4iXk596feuz1x0qtQ5jY5/easGlVFKN68Mi9Lmj8456V7ou9LKba3WqZUYaSnG861/P+sVup1k8Uf875tvdqgWeLfMlvdJqz3ObflarUbU4T2I5S5TU6/OStHVREu3ZWTLM6dxlx+uudVaZkhj9gsU6ow5wmr9Fp3qlWiKHpoosVqqT6ZLj0no9WID4TlTnJarlYbPiVNaB9Cmdvk9JuzejQV4V1dOcliHWoM5qd75EuBJtmsUqow70v3Le213jtWie6Y32KtFe1eXZtTLVYe9ClpuclOy9Vqa6cK7UEoc5ucfnNWkKYiPKwrZ1msDxuDeeqeR6RnDg97xmKVUoWJ9hVW6bOq+eMIdVfNY7OUy5MbBz1gs/SAA6TlZoxxWq92SKrQ2YUyt8npN2cVaSrCj3blNItnfFycp+6JtpJS7G2xSKnCRI9JfdpnwWuldWYdZrXQhPcsX12rHqfLkS8S13N8OO9fU4XOLJS5TU6/OStJURG6X5Xu0TGmZL665x9SilEWj7ItVRiLPu0z5JtvGVe5ey2rZWrftXxx7Sw+ljFI/lFYfGRii6Fvp0ydTShzm5x+c1aToiI8tivnWYJVTcl8dU+0uhTjO/IapQoTRbdKqzQsdGbyh8qf29PyAREj/2v74tqcZZmy18Lyctc6LFerfTJl6GxCmdvk9JuzohQV4WpdOdGSmH4M8NY9F0opxsqfNShVmLm2lJbpt8ixsbfg7rnty8NslxA+75nsKdsjzPV5ebl3nZ7sJP7NMQ+hzG1y+s1ZVXqKUHwga75MH6L21j2zlpJiyM8YKlWYue6z+uNenyHrn3bPrJad37rmO2KKQWNfsX1tHZaxP8oJFsuJtwZvZr6Fdz5Cmdvk9JuzsvQU4SniWTL+D/9M6XLxEbLGR9B5657oJ1KMCeJHDUoVpteXpWVajFt30g9++btLr/zD2aceuO2K9iXa63Drl9ZhD/uj3GSx3P4usV9NHzutUOY2Of3mrC49Rbi+eJqkuN1yP/HemrWhhp82/HXPu+JzpsQH9pQqTK+XuvXsrKUyfC5d/D3wgGE2R7nYIfZH06dOK5S5TU6/OStMTRG+Kv/ZxXz7FyOLh6memby3v+6JDpJiLCjdh6VUYfr8TFrGk8vtX1mHV6yPYrxsqt9LDrH3zBA7nVDmNjn95qwyNUUoP8hgEfMNQc3ESyRrmyXv7LF7nh8u5ThNWKFUYfrMWVNaxout7V9YjJVtD7OP1XIfss99QabcKYQyt8npN2elqSnCzcUT5WtZlj9aXH5E8ifdPHZPtLOUY4kZ5gVKFabu0bHSOh7MH3vNqTXrG7qfZ7XcV+2Dp/3IR1qhzG1y+s1ZbVqK8O0R4plyWZb1/y2fib9L3Nln99wr5vi1eYFShWn4tbhOdpn+54+iK22PY/fYKPtXvEy23M5Cmdvk9Juz4rQU4QXimTIy3d21+snXz2+XuK/P7ok2knIsZ/6/RKnC9NteWiezrH9pe8fyw4rz2/0C/lHr4F/NGNxRKHObnH5zVp2WIvyCeKpsmu0A8gXvYxKvDPHaPVeJQcx/VCpVmH7vWf8JLqU1p7m8rDhr2x3o/9mt1rOgbfLfZA3uJJS5TU6/OStPSRFOlf/K9NNsR7hRPhv/lLSv1+7p+ZiUYyXjDyWlCjPgGetiSGVxq/ueGh1hd6SjLZf7vG30xzMndxDK3Can35zVp6QIL5NPlqeyHWHmBPEIOyft67V7ot+IQYx/DitVmEG3SrmyGJPqcbyt/m53qOstl7N9OO+i2ZPbC2Vuk9NvTgWUFOEu4smS+WPJ8gMIJiRdIum3e6aLt7lZ3bR7qcI0+at8uVNaI8WnOFn4YLTNoYbYPUQ4iv5lmX0nD9FthTK3yek3pwY6inDmRPFsOSjrMS6Sz8ikeeu3e6JjUgcpXZhmf7K+d7aj4Vk+ST9oY5tjrWS72kzLh/P+3Et2K6HMbXL6zamCjiK8Tj5dbsp6jHfkn1iSrkz03D1viH8QXd+wd6nCtPjjSGmpVEZc7PaKkhxvc7A9rJfb0C79A37CWwhlbpPTb04ddBThXuLpMmGWvIpgE/EgC8+J39Nz90T7ikluSd65VGFa3TheXMvdPNc5vqAkd9gczf4az+9bpZ8vy+2QnIQyt8npN6cSKopwjvxwiC9mP4rFLTETRr7v7nlSvK/q5sk7lypMm3vl/yFdLeThOpm62fLlUrXaQ9bLWfwWY67P+UovCWVuk9NvTi1UFKHFU87Pz34UiwceHhi/p+/uibYTkySP/1KFaffip8XF3KzxnOvLSWbxiYd5E34nEOM9qz+JOv+vkVIoc5ucfnOqoaIIvy2eMEOtHpYu+IR4mKXjd/TePbeJSbp0m5usYTrM/Ka4motvTHd9NQYWvxLYxGE5q4fzZnhiiotQ5jY5/ebUQ0URLiueMabH5lqz+KvOPbE7eu+eaB0pyJCHk3YtVZgYf1pIWs7aRA+/B2jysHxEl0deHmDxCubJ/qdtG6HMbXL6zamIhiKUb/1s94RYyd3ycY6I3dF/91wqJunSp/szhonzuq8bj26V/XYyrRYVD3mVw2p/tHgJhmd7eRTK3Can35yaaCjC78nnjJeL0HuWEI+zYuyO/rtn9nJSkmFJd9IpVZh4l8p3OJctmvw0kLTEp07V3nBY7WWLF3Gs99cQI5S5TU6/OVXRUITi/S6T/nbnah/57Hw0bj//3ROdLib5RsKepQqTYNrRWZ9QOOqw991fh+Rs6agfdlpO/PcHh0+eZBDK3Can35y6KCjCx+STZl8/R7pGPtJxcfvl0D1T5pOSjHwhfs9ShUn04n5Z7j064mvPuL8K2XPScd0embSr+DpG+bzWJ0Eoc5ucfnMqo6AIT5DPGpc/3RhMn0c80hpx++XQPdHhYpRufZYjSxiDFw+wurlnjFH7ePzMRAvpZ7hfOK12lvhKNsjpdTQJZW6T029ObRQUofzxrnGZH0bXsJN4qKFTYnaTroM8K0WUl8X7kY2Li1KyMEZvnry8tGyM5U54LcUrsCP9btztT9GPi6/lyJxex6BQ5jY5/eZUR0ERyk+ecP9xJMHNQ6RDDY/r3K+Z9xmT6vd448kqVgAADPVJREFUh4kv++XY/UoVRtBz3aR5xZWbzbvL9Xnek+xB8/1mV3FcTrqN95j/5vIqmoQyt8npN6c+Corw+S3GGc+a+fb295eW85Yz3lBs6DJnx+31zlcN43zox9I9JGjOUUuZannIYj+K369UYWTTL99lYdNb3mTR3f6S99/Url4t+TfL4zZ5wnG1V7c1/a599No35/IamoQyt8npN6dCCooQFddz/0+2kW5CusQXTn+k6JzBCWVuk9NvTo0oQlTCC5f/8CtrLdA5FYYsvsFuP7r29aLjhSiUuU1OvzlVoghRIVNfePj2a/588e/PPfu8Cy+5/IY7//PyjKIjBSuUuU1Ovzl1oggBdAplbpPTb06lKEIAHUKZ2+T0m1MrihBAu1DmNjn95lSLIgTQJpS5TU6/OfWiCAG0CmVuk9NvTsUoQgAtQpnb5PSbUzOKEECzUOY2Of3mVI0iBNAklLlNTr85daMIAQwKZW6T029O5ShCAANCmdvk9JtTO4oQQL9Q5jY5/eZUjyIE0BDK3Can35ygCAHUhTK3yek3JyhCAHWhzG1y+s0JihBAXShzm5x+cyKiCAH0CWVuk9NvTvSiCAGEM7fJ6Tcn+lCEAIKZ2+T0mxN1FCGAUOY2Of3mRANFCKgXytwmp9+c6EcRAtqFMrfJ6TcnBlCEgHKhzG1y+s2JQRQhoFsoc5ucfnOiCUUIqBbK3Can35xoRhECmoUyt8npNydaUISAYqHMbXL6zYlWFCGgVyhzm5x+c6INRQioFcrcJqffnGhHEQJahTK3yek3JzpQhIBSocxtcvrNiU4UIaBTKHObnH5zIgZFCKgUytwmp9+ciEMRAhqFMrfJ6TcnYlGEgEKhzG1y+s2JeBQhoE8oc5ucfnMiAUUIqBPK3Can35xIQhEC2oQyt8npNycSUYSAMqHMbXL6zYlkFCGgSyhzm5x+c8KAIgRUCWVuk9NvTphQhIAmocxtcvrNCSOKEFAklLlNTr85YUYRAnqEMrfJ6TcnBBQhoEYoc5ucfnNCQhECWoQyt8npNydEFCGgRChzm5x+c0JGEQI6hDK3yek3JyxQhIAKocxtcvrNCRsUIaBBKHObnH5zwgpFCCgQytwmp9+csEMRAtUXytwmp9+csEQRApUXytwmp9+csEURAlUXytwmp9+csEYRAhUXytwmp9+csEcRAtUWytwmp9+ccEARApUWytwmp9+ccEERApW2Z1fm9q5zyFmunHBBEQJV9kwgc5ucfnPCCUUIVNnkQOY2Of3mhBOKEKiybgxuH3ObnH5zwglFCFRZFwa3l+s6yOk3J5xQhECV5T+4/cxtcvrNCScUIVBluQ9uT3ObnH5zwglFCFRZ3oPb19wmp9+ccEIRAlWW8+D2NrfJ6TcnnFCEQJXlO7j9zW1y+s0JJxQhUGW5Dm6Pc5ucfnPCCUUIVFmeg9vn3CYnPVggihCoshwHt9e5TU56sEAUIVBl+Q1uv3ObnPRggShCoMpyG9ye5zY56cECUYRAleU1uH3PbXL6zQknFCFQZTkNbu9zm5woEEUIVFk+g9v/3CYnCkQRAlWWy+DOYW6TEwWiCIEqy2Nw5zG3yYkCUYRAleUwuHOZ2+REgShCoMr8D+585jY5USCKEKgy74M7p7lNThSIIgSqzPfgzmtukxMFogiBKvM8uHOb2+REgShCoMr8Du785jY5USCKEKgyr4M7x7lNThSIIgSqzOfgznNukxMFogiBKvM4uHOd2+REgShCoMr8De585zY5USCKEKgyb4M757lNThSIIgSqzNfgzntukxMFogiBKvM0uHOf2+REgShCoMr8DO785zY5USCKEKgyL4O7C3ObnCgQRQhUmY/B3Y25TU4UiCIEqszD4O7K3CYnCkQRAlWWfXB3Z26TEwWiCIEqyzy4uzS3yYkCUYRAlWUd3N2a2+REgShCoMoyDu6uzW1yokAUIVBl2QZ39+Y2OVEgihCoskyDu4tzm5woEEUIVFmWwd3NuU1OFIgiBKosw+Du6twmJwpEEQJVln5wd3dukxMFogiBKks9uLs8t8mJAlGEQJWlHdzdntvkRIEoQqDKUg7urs9tcqJAFCFQZekGd/fnNjlRIIoQqLJUg7uAuU1OFIgiBKoszeAuYm6TEwWiCIEqSzG4C5nb5ESBKEKgytwHdzFzm5woEEUIVJnz4C5obpMTBaIIgSpzHdxFzW1yokAUIVBljoO7sLlNThSIIgSqzG1wFze3yYkCUYRAlTkN7gLnNjlRIIoQqDKXwV3k3CYnCkQRAlXmMLgLndvkRIEoQqDK7Ad3sXObnCgQRQhUmfXgLnhukxMFogiBKrMd3EXPbXKiQBQhUGWWg7vwuU1OFIgiBKrMbnAXP7fJiQJRhECVWQ3uEsxtcqJAFCFQZTaDuwxzm5woEEUIVJnF4C7F3CYnCkQRAlUmD+5yzG1yokAUIVBl4uAuydwmJwpEEQJVJg3ussxtcqJAFCFQZcLgLs3cJicKRBECVWYe3OWZ2+REgShCoMqMg7tEc5ucKBBFCFSZaXCXaW6TEwWiCIEqMwzuUs1tcqJAFCFQZcmDu1xzm5woEEUIVFni4C7Z3CYnCkQRAlWWNLjLNrfJiQJRhECVJQzu0s1tcqJAFCFQZfGDu3xzm5woEEUIVFns4C7h3CYnCkQRAlUWN7jLOLfJiQJRhECVxQzuUs5tcqJAFCFQZZ2Du5xzm5woEEUIVFnH4C7p3CYnCkQRAlXWPrjLOrfJiQJRhECVTQ5kbpMTBaIIgSqbHMjcJicKRBECVTY5kLlNThSIIgSqbHIgc5ucKBBFCFRZ0+DedU7RYQzIiQJRhECVTQ7k5xdyokAUIVBlkwOZ2+REgShCoMomBzK3yYkCUYRAlU0O5O9Z5ESBKEKgyiYH8vMLOVEgihCosmcC+fmFnCgQRQhU2rdqtX1CmNvkRHEoQqDann666AR2yInCUIQAANUoQgCAahQhAEA1ihAAoBpFCABQjSIEAKhGEQIAVKMIAQCqUYQAANUoQgCAahQhAEA1ihAAoBpFCABQjSIEAKhGEQIAVKMIAQCqUYQAANUoQgCAahQhAEA1ihAAoBpFCABQjSIEAKhGEQIAVKMIAQCqUYQAANUoQgCAahQhAEA1ihAAoBpFCABQjSIEAKhGEQIAVKMIAQCqUYQAANUoQgCAahQhAEA1ihAAoBpFCABQjSIEAKhGEQIAVKMIAQCqUYQAANUoQgCAahQhAEA1ihAAoBpFCABQjSIEAKhGEQIAVKMIAQCqUYQAANUoQgCAahQhAEA1ihAAoBpFCABQjSIEAKhGEQIAVKMIAQCqUYQAANUoQgCAahQhAEA1ihAAoBpFCABQjSIEAKhGEQIAVKMIAQCqUYQAANUoQgCAahQhAEA1ihAAoBpFCABQjSIEAKhGEQIAVKMIAQCqUYQAANUoQgCAahQhAEA1ihAAoBpFCABQjSIEAKhGEQIAVKMIAQCqUYQAANUoQgCAahQhAEA1ihAAoBpFCABQjSIEAKhGEQIAVKMIAQCqUYQAANUoQgCAahQhAEA1ihAAoBpFCABQjSIEAKhGEQIAVKMIAQCqUYQAANUoQgCAahQhAEA1ihAAoBpFCABQjSIEAKhGEQIAVKMIAQCqUYQAANUoQgCAahQhAEA1ihAAoBpFCABQjSIEAKhGEQIAVKMIAQCqUYQAANUoQgCAahQhAEA1ihAAoBpFCABQjSIEAKhGEQIAVKMIAQCqUYQAANUoQgCAahQhAEA1ihAAoBpFCABQjSIEAKhGEQIAVKMIAQCqUYQAANUoQgCAahQhAEA1ihAAoBpFCABQjSIEAKhGEQIAVKMIAQCqUYQAANUoQgCAahQhAEA1ihAAoBpFCABQjSIEAKhGEQIAVKMIAQCqUYQAANUoQgCAahQhAEA1ihAAoBpFCABQjSIEAKhGEQIAVKMIAQCqUYQAANUoQgCAahQhAEA1ihAAoBpFCABQjSIEAKhGEQIAVKMIAQCqUYQAANUoQgCAahQhAEA1ihAAoBpFCABQjSIEAKhGEQIAVKMIAQCqUYQAANUoQgCAahQhAEA1ihAAoBpFCABQjSIEAKhGEQIAVKMIAQCqUYQAANUoQgCAahQhAEA1ihAAoBpFCABQjSIEAKhGEQIAVKMIAQCqUYQAANUoQgCAahQhAEA1ihAAoBpFCABQjSIEAKhGEQIAVKMIAQCqUYQAANUoQgCAahQhAEA1ihAAoBpFCABQjSIEAKhGEQIAVKMIAQCqUYQAANUoQgCAahQhAEA1ihAAoBpFCABQjSIEAKhGEQIAVKMIAQCqUYQAANUoQgCAahQhAEA1ihAAoBpFCABQjSIEAKhGEQIAVKMIAQCqUYQAANUoQgCAahQhAEA1ihAAoBpFCABQjSIEAKhGEQIAVKMIAQCqUYQAANX+P5hTe6Ul1nUnAAAAAElFTkSuQmCC;" vertex="1" parent="1">
          <mxGeometry x="360" y="173.60000000000002" width="70" height="36.4" as="geometry" />
        </mxCell>
        <mxCell id="wVAZ-YzccNhZugPFJvmi-16" value="" style="shape=flexArrow;endArrow=classic;html=1;rounded=0;exitX=0.5;exitY=1;exitDx=0;exitDy=0;entryX=0.5;entryY=0;entryDx=0;entryDy=0;" edge="1" parent="1">
          <mxGeometry width="50" height="50" relative="1" as="geometry">
            <mxPoint x="394.5" y="210" as="sourcePoint" />
            <mxPoint x="394.5" y="240" as="targetPoint" />
          </mxGeometry>
        </mxCell>
        <mxCell id="wVAZ-YzccNhZugPFJvmi-18" style="edgeStyle=orthogonalEdgeStyle;rounded=0;orthogonalLoop=1;jettySize=auto;html=1;exitX=1;exitY=0.25;exitDx=0;exitDy=0;entryX=0;entryY=0.25;entryDx=0;entryDy=0;" edge="1" parent="1" source="t5OBkkhKOG6cYtw1sPyQ-18" target="wVAZ-YzccNhZugPFJvmi-4">
          <mxGeometry relative="1" as="geometry" />
        </mxCell>
        <mxCell id="wVAZ-YzccNhZugPFJvmi-29" value="decode()" style="edgeLabel;html=1;align=center;verticalAlign=middle;resizable=0;points=[];" vertex="1" connectable="0" parent="wVAZ-YzccNhZugPFJvmi-18">
          <mxGeometry x="-0.025" y="-3" relative="1" as="geometry">
            <mxPoint y="12" as="offset" />
          </mxGeometry>
        </mxCell>
        <mxCell id="wVAZ-YzccNhZugPFJvmi-27" value="next()" style="edgeLabel;html=1;align=center;verticalAlign=middle;resizable=0;points=[];" vertex="1" connectable="0" parent="1">
          <mxGeometry x="110" y="220" as="geometry" />
        </mxCell>
      </root>
    </mxGraphModel>
  </diagram>
</mxfile>
